  0
SECTION
  2
HEADER
  9
$ACADVER
  1
AC1024
  9
$ACADMAINTVER
 70
     6
  9
$DWGCODEPAGE
  3
ANSI_1251
  9
$INSBASE
 10
0.0
 20
0.0
 30
0.0
  9
$EXTMIN
 10
1.000000000000000E+20
 20
1.000000000000000E+20
 30
1.000000000000000E+20
  9
$EXTMAX
 10
-1.000000000000000E+20
 20
-1.000000000000000E+20
 30
-1.000000000000000E+20
  9
$LIMMIN
 10
0.0
 20
0.0
  9
$LIMMAX
 10
12.0
 20
9.0
  9
$ORTHOMODE
 70
     0
  9
$REGENMODE
 70
     1
  9
$FILLMODE
 70
     1
  9
$QTEXTMODE
 70
     0
  9
$MIRRTEXT
 70
     1
  9
$LTSCALE
 40
1.0
  9
$ATTMODE
 70
     1
  9
$TEXTSIZE
 40
0.2
  9
$TRACEWID
 40
0.05
  9
$TEXTSTYLE
  7
Standard
  9
$CLAYER
  8
0
  9
$CELTYPE
  6
ByLayer
  9
$CECOLOR
 62
   256
  9
$CELTSCALE
 40
1.0
  9
$DISPSILH
 70
     0
  9
$DIMSCALE
 40
1.0
  9
$DIMASZ
 40
0.18
  9
$DIMEXO
 40
0.0625
  9
$DIMDLI
 40
0.38
  9
$DIMRND
 40
0.0
  9
$DIMDLE
 40
0.0
  9
$DIMEXE
 40
0.18
  9
$DIMTP
 40
0.0
  9
$DIMTM
 40
0.0
  9
$DIMTXT
 40
0.18
  9
$DIMCEN
 40
0.09
  9
$DIMTSZ
 40
0.0
  9
$DIMTOL
 70
     0
  9
$DIMLIM
 70
     0
  9
$DIMTIH
 70
     1
  9
$DIMTOH
 70
     1
  9
$DIMSE1
 70
     0
  9
$DIMSE2
 70
     0
  9
$DIMTAD
 70
     0
  9
$DIMZIN
 70
     0
  9
$DIMBLK
  1

  9
$DIMASO
 70
     1
  9
$DIMSHO
 70
     1
  9
$DIMPOST
  1

  9
$DIMAPOST
  1

  9
$DIMALT
 70
     0
  9
$DIMALTD
 70
     2
  9
$DIMALTF
 40
25.4
  9
$DIMLFAC
 40
1.0
  9
$DIMTOFL
 70
     0
  9
$DIMTVP
 40
0.0
  9
$DIMTIX
 70
     0
  9
$DIMSOXD
 70
     0
  9
$DIMSAH
 70
     0
  9
$DIMBLK1
  1

  9
$DIMBLK2
  1

  9
$DIMSTYLE
  2
Standard
  9
$DIMCLRD
 70
     0
  9
$DIMCLRE
 70
     0
  9
$DIMCLRT
 70
     0
  9
$DIMTFAC
 40
1.0
  9
$DIMGAP
 40
0.09
  9
$DIMJUST
 70
     0
  9
$DIMSD1
 70
     0
  9
$DIMSD2
 70
     0
  9
$DIMTOLJ
 70
     1
  9
$DIMTZIN
 70
     0
  9
$DIMALTZ
 70
     0
  9
$DIMALTTZ
 70
     0
  9
$DIMUPT
 70
     0
  9
$DIMDEC
 70
     4
  9
$DIMTDEC
 70
     4
  9
$DIMALTU
 70
     2
  9
$DIMALTTD
 70
     2
  9
$DIMTXSTY
  7
Standard
  9
$DIMAUNIT
 70
     0
  9
$DIMADEC
 70
     0
  9
$DIMALTRND
 40
0.0
  9
$DIMAZIN
 70
     0
  9
$DIMDSEP
 70
    46
  9
$DIMATFIT
 70
     3
  9
$DIMFRAC
 70
     0
  9
$DIMLDRBLK
  1

  9
$DIMLUNIT
 70
     2
  9
$DIMLWD
 70
    -2
  9
$DIMLWE
 70
    -2
  9
$DIMTMOVE
 70
     0
  9
$DIMFXL
 40
1.0
  9
$DIMFXLON
 70
     0
  9
$DIMJOGANG
 40
0.7853981633974483
  9
$DIMTFILL
 70
     0
  9
$DIMTFILLCLR
 70
     0
  9
$DIMARCSYM
 70
     0
  9
$DIMLTYPE
  6

  9
$DIMLTEX1
  6

  9
$DIMLTEX2
  6

  9
$DIMTXTDIRECTION
 70
     0
  9
$LUNITS
 70
     2
  9
$LUPREC
 70
     4
  9
$SKETCHINC
 40
0.1
  9
$FILLETRAD
 40
0.5
  9
$AUNITS
 70
     0
  9
$AUPREC
 70
     0
  9
$MENU
  1
.
  9
$ELEVATION
 40
0.0
  9
$PELEVATION
 40
0.0
  9
$THICKNESS
 40
0.0
  9
$LIMCHECK
 70
     0
  9
$CHAMFERA
 40
0.5
  9
$CHAMFERB
 40
0.5
  9
$CHAMFERC
 40
1.0
  9
$CHAMFERD
 40
0.0
  9
$SKPOLY
 70
     0
  9
$TDCREATE
 40
2458916.421773542
  9
$TDUCREATE
 40
2458916.296773542
  9
$TDUPDATE
 40
2458916.421773565
  9
$TDUUPDATE
 40
2458916.296773565
  9
$TDINDWG
 40
0.0000000116
  9
$TDUSRTIMER
 40
0.0000000116
  9
$USRTIMER
 70
     1
  9
$ANGBASE
 50
0.0
  9
$ANGDIR
 70
     0
  9
$PDMODE
 70
     0
  9
$PDSIZE
 40
0.0
  9
$PLINEWID
 40
0.0
  9
$SPLFRAME
 70
     0
  9
$SPLINETYPE
 70
     6
  9
$SPLINESEGS
 70
     8
  9
$HANDSEED
  5
68
  9
$SURFTAB1
 70
     6
  9
$SURFTAB2
 70
     6
  9
$SURFTYPE
 70
     6
  9
$SURFU
 70
     6
  9
$SURFV
 70
     6
  9
$UCSBASE
  2

  9
$UCSNAME
  2

  9
$UCSORG
 10
0.0
 20
0.0
 30
0.0
  9
$UCSXDIR
 10
1.0
 20
0.0
 30
0.0
  9
$UCSYDIR
 10
0.0
 20
1.0
 30
0.0
  9
$UCSORTHOREF
  2

  9
$UCSORTHOVIEW
 70
     0
  9
$UCSORGTOP
 10
0.0
 20
0.0
 30
0.0
  9
$UCSORGBOTTOM
 10
0.0
 20
0.0
 30
0.0
  9
$UCSORGLEFT
 10
0.0
 20
0.0
 30
0.0
  9
$UCSORGRIGHT
 10
0.0
 20
0.0
 30
0.0
  9
$UCSORGFRONT
 10
0.0
 20
0.0
 30
0.0
  9
$UCSORGBACK
 10
0.0
 20
0.0
 30
0.0
  9
$PUCSBASE
  2

  9
$PUCSNAME
  2

  9
$PUCSORG
 10
0.0
 20
0.0
 30
0.0
  9
$PUCSXDIR
 10
1.0
 20
0.0
 30
0.0
  9
$PUCSYDIR
 10
0.0
 20
1.0
 30
0.0
  9
$PUCSORTHOREF
  2

  9
$PUCSORTHOVIEW
 70
     0
  9
$PUCSORGTOP
 10
0.0
 20
0.0
 30
0.0
  9
$PUCSORGBOTTOM
 10
0.0
 20
0.0
 30
0.0
  9
$PUCSORGLEFT
 10
0.0
 20
0.0
 30
0.0
  9
$PUCSORGRIGHT
 10
0.0
 20
0.0
 30
0.0
  9
$PUCSORGFRONT
 10
0.0
 20
0.0
 30
0.0
  9
$PUCSORGBACK
 10
0.0
 20
0.0
 30
0.0
  9
$USERI1
 70
     0
  9
$USERI2
 70
     0
  9
$USERI3
 70
     0
  9
$USERI4
 70
     0
  9
$USERI5
 70
     0
  9
$USERR1
 40
0.0
  9
$USERR2
 40
0.0
  9
$USERR3
 40
0.0
  9
$USERR4
 40
0.0
  9
$USERR5
 40
0.0
  9
$WORLDVIEW
 70
     1
  9
$SHADEDGE
 70
     3
  9
$SHADEDIF
 70
    70
  9
$TILEMODE
 70
     1
  9
$MAXACTVP
 70
    64
  9
$PINSBASE
 10
0.0
 20
0.0
 30
0.0
  9
$PLIMCHECK
 70
     0
  9
$PEXTMIN
 10
1.000000000000000E+20
 20
1.000000000000000E+20
 30
1.000000000000000E+20
  9
$PEXTMAX
 10
-1.000000000000000E+20
 20
-1.000000000000000E+20
 30
-1.000000000000000E+20
  9
$PLIMMIN
 10
0.0
 20
0.0
  9
$PLIMMAX
 10
12.0
 20
9.0
  9
$UNITMODE
 70
     0
  9
$VISRETAIN
 70
     1
  9
$PLINEGEN
 70
     0
  9
$PSLTSCALE
 70
     1
  9
$TREEDEPTH
 70
  3020
  9
$CMLSTYLE
  2
Standard
  9
$CMLJUST
 70
     0
  9
$CMLSCALE
 40
1.0
  9
$PROXYGRAPHICS
 70
     1
  9
$MEASUREMENT
 70
     0
  9
$CELWEIGHT
370
    -1
  9
$ENDCAPS
280
     0
  9
$JOINSTYLE
280
     0
  9
$LWDISPLAY
290
     1
  9
$INSUNITS
 70
     1
  9
$HYPERLINKBASE
  1

  9
$STYLESHEET
  1

  9
$XEDIT
290
     1
  9
$CEPSNTYPE
380
     0
  9
$PSTYLEMODE
290
     1
  9
$FINGERPRINTGUID
  2
{BD120CE3-442F-4A3F-BFDA-1668AC8ABC3F}
  9
$VERSIONGUID
  2
{FAEB1C32-E019-11D5-929B-00C0DF256EC4}
  9
$EXTNAMES
290
     1
  9
$PSVPSCALE
 40
0.0
  9
$OLESTARTUP
290
     0
  9
$SORTENTS
280
   127
  9
$INDEXCTL
280
     0
  9
$HIDETEXT
280
     1
  9
$XCLIPFRAME
280
     2
  9
$HALOGAP
280
     0
  9
$OBSCOLOR
 70
   257
  9
$OBSLTYPE
280
     0
  9
$INTERSECTIONDISPLAY
280
     0
  9
$INTERSECTIONCOLOR
 70
   257
  9
$DIMASSOC
280
     2
  9
$PROJECTNAME
  1

  9
$CAMERADISPLAY
290
     0
  9
$LENSLENGTH
 40
50.0
  9
$CAMERAHEIGHT
 40
0.0
  9
$STEPSPERSEC
 40
2.0
  9
$STEPSIZE
 40
6.0
  9
$3DDWFPREC
 40
2.0
  9
$PSOLWIDTH
 40
0.25
  9
$PSOLHEIGHT
 40
4.0
  9
$LOFTANG1
 40
1.570796326794897
  9
$LOFTANG2
 40
1.570796326794897
  9
$LOFTMAG1
 40
0.0
  9
$LOFTMAG2
 40
0.0
  9
$LOFTPARAM
 70
     7
  9
$LOFTNORMALS
280
     1
  9
$LATITUDE
 40
37.795
  9
$LONGITUDE
 40
-122.394
  9
$NORTHDIRECTION
 40
0.0
  9
$TIMEZONE
 70
 -8000
  9
$LIGHTGLYPHDISPLAY
280
     1
  9
$TILEMODELIGHTSYNCH
280
     1
  9
$CMATERIAL
347
3C
  9
$SOLIDHIST
280
     1
  9
$SHOWHIST
280
     1
  9
$DWFFRAME
280
     2
  9
$DGNFRAME
280
     2
  9
$REALWORLDSCALE
290
     1
  9
$INTERFERECOLOR
 62
   256
  9
$CSHADOW
280
     0
  9
$SHADOWPLANELOCATION
 40
0.0
  0
ENDSEC
  0
SECTION
  2
CLASSES
  0
CLASS
  1
ACDBDICTIONARYWDFLT
  2
AcDbDictionaryWithDefault
  3
ObjectDBX Classes
 90
        0
 91
        4
280
     0
281
     0
  0
CLASS
  1
VISUALSTYLE
  2
AcDbVisualStyle
  3
ObjectDBX Classes
 90
     4095
 91
        4
280
     0
281
     0
  0
CLASS
  1
MATERIAL
  2
AcDbMaterial
  3
ObjectDBX Classes
 90
     1153
 91
        4
280
     0
281
     0
  0
CLASS
  1
SUN
  2
AcDbSun
  3
SCENEOE
 90
     1024
 91
        4
280
     0
281
     0
  0
ENDSEC
  0
SECTION
  2
TABLES
  0
TABLE
  2
VPORT
  5
8
330
0
100
AcDbSymbolTable
 70
     1
  0
VPORT
  5
29
330
8
100
AcDbSymbolTableRecord
100
AcDbViewportTableRecord
  2
*Active
 70
     0
 10
0.0
 20
0.0
 11
1.0
 21
1.0
 12
0.0
 22
0.0
 13
0.0
 23
0.0
 14
0.5
 24
0.5
 15
0.5
 25
0.5
 16
0.0
 26
0.0
 36
1.0
 17
375.0
 27
-375.0
 37
0.0
 40
750.0
 41
1.0
 42
50.0
 43
0.0
 44
0.0
 50
0.0
 51
0.0
 71
     0
 72
   100
 73
     1
 74
     3
 75
     0
 76
     0
 77
     0
 78
     0
281
     0
 65
     1
110
0.0
120
0.0
130
0.0
111
1.0
121
0.0
131
0.0
112
0.0
122
1.0
132
0.0
 79
     0
146
0.0
 60
     3
 61
     5
292
     1
282
     1
141
0.0
142
0.0
 63
   250
361
3F
  0
ENDTAB
  0
TABLE
  2
LTYPE
  5
5
330
0
100
AcDbSymbolTable
 70
     1
  0
LTYPE
  5
14
330
5
100
AcDbSymbolTableRecord
100
AcDbLinetypeTableRecord
  2
ByBlock
 70
     0
  3

 72
    65
 73
     0
 40
0.0
  0
LTYPE
  5
15
330
5
100
AcDbSymbolTableRecord
100
AcDbLinetypeTableRecord
  2
ByLayer
 70
     0
  3

 72
    65
 73
     0
 40
0.0
  0
LTYPE
  5
16
330
5
100
AcDbSymbolTableRecord
100
AcDbLinetypeTableRecord
  2
Continuous
 70
     0
  3
Solid line
 72
    65
 73
     0
 40
0.0
  0
ENDTAB
  0
TABLE
  2
LAYER
  5
2
330
0
100
AcDbSymbolTable
 70
     2
  0
LAYER
  5
10
330
2
100
AcDbSymbolTableRecord
100
AcDbLayerTableRecord
  2
0
 70
     0
 62
     7
  6
Continuous
370
    -3
390
F
347
3E
  0
LAYER
  5
40
330
2
100
AcDbSymbolTableRecord
100
AcDbLayerTableRecord
  2
Layer 1
 70
     0
 62
     7
  6
Continuous
370
    -3
390
F
347
3E
  0
ENDTAB
  0
TABLE
  2
STYLE
  5
3
330
0
100
AcDbSymbolTable
 70
     1
  0
STYLE
  5
11
330
3
100
AcDbSymbolTableRecord
100
AcDbTextStyleTableRecord
  2
Standard
 70
     0
 40
0.0
 41
1.0
 50
0.0
 71
     0
 42
0.2
  3
txt
  4

  0
ENDTAB
  0
TABLE
  2
VIEW
  5
6
330
0
100
AcDbSymbolTable
 70
     0
  0
ENDTAB
  0
TABLE
  2
UCS
  5
7
330
0
100
AcDbSymbolTable
 70
     0
  0
ENDTAB
  0
TABLE
  2
APPID
  5
9
330
0
100
AcDbSymbolTable
 70
     1
  0
APPID
  5
12
330
9
100
AcDbSymbolTableRecord
100
AcDbRegAppTableRecord
  2
ACAD
 70
     0
  0
ENDTAB
  0
TABLE
  2
DIMSTYLE
  5
A
330
0
100
AcDbSymbolTable
 70
     1
100
AcDbDimStyleTable
  0
DIMSTYLE
105
27
330
A
100
AcDbSymbolTableRecord
100
AcDbDimStyleTableRecord
  2
Standard
 70
     0
178
     0
340
11
  0
ENDTAB
  0
TABLE
  2
BLOCK_RECORD
  5
1
330
0
100
AcDbSymbolTable
 70
     2
  0
BLOCK_RECORD
  5
1F
330
1
100
AcDbSymbolTableRecord
100
AcDbBlockTableRecord
  2
*Model_Space
340
22
 70
     0
280
     1
281
     0
  0
BLOCK_RECORD
  5
1B
330
1
100
AcDbSymbolTableRecord
100
AcDbBlockTableRecord
  2
*Paper_Space
340
1E
 70
     0
280
     1
281
     0
  0
BLOCK_RECORD
  5
23
330
1
100
AcDbSymbolTableRecord
100
AcDbBlockTableRecord
  2
*Paper_Space0
340
26
 70
     0
280
     1
281
     0
  0
BLOCK_RECORD
  5
41
330
1
100
AcDbSymbolTableRecord
100
AcDbBlockTableRecord
  2
block 2
340
0
102
{BLKREFS
331
42
102
}
 70
     0
280
     1
281
     0
  0
ENDTAB
  0
ENDSEC
  0
SECTION
  2
BLOCKS
  0
BLOCK
  5
20
330
1F
100
AcDbEntity
  8
0
100
AcDbBlockBegin
  2
*Model_Space
 70
     0
 10
0.0
 20
0.0
 30
0.0
  3
*Model_Space
  1

  0
ENDBLK
  5
21
330
1F
100
AcDbEntity
  8
0
100
AcDbBlockEnd
  0
BLOCK
  5
1C
330
1B
100
AcDbEntity
 67
     1
  8
0
100
AcDbBlockBegin
  2
*Paper_Space
 70
     0
 10
0.0
 20
0.0
 30
0.0
  3
*Paper_Space
  1

  0
ENDBLK
  5
1D
330
1B
100
AcDbEntity
 67
     1
  8
0
100
AcDbBlockEnd
  0
BLOCK
  5
24
330
23
100
AcDbEntity
  8
0
100
AcDbBlockBegin
  2
*Paper_Space0
 70
     0
 10
0.0
 20
0.0
 30
0.0
  3
*Paper_Space0
  1

  0
ENDBLK
  5
25
330
23
100
AcDbEntity
  8
0
100
AcDbBlockEnd
  0
BLOCK
  5
43
330
41
100
AcDbEntity
  8
0
100
AcDbBlockBegin
  2
block 2
 70
     0
 10
0.0
 20
0.0
 30
0.0
  3
block 2
  1

  0
SPLINE
  5
45
330
41
100
AcDbEntity
  8
Layer 1
370
     0
100
AcDbSpline
210
0.0
220
0.0
230
1.0
 70
    11
 71
     3
 72
    47
 73
    43
 74
     0
 42
0.0000000001
 43
0.0000000001
 12
1.0
 22
0.0
 32
0.0
 13
1.0
 23
0.0
 33
0.0
 40
0.0
 40
0.0
 40
0.0
 40
0.0
 40
1.0
 40
1.0
 40
1.0
 40
2.0
 40
2.0
 40
2.0
 40
3.0
 40
3.0
 40
3.0
 40
4.0
 40
4.0
 40
4.0
 40
5.0
 40
5.0
 40
5.0
 40
6.0
 40
6.0
 40
6.0
 40
7.0
 40
7.0
 40
7.0
 40
8.0
 40
8.0
 40
8.0
 40
9.0
 40
9.0
 40
9.0
 40
10.0
 40
10.0
 40
10.0
 40
11.0
 40
11.0
 40
11.0
 40
12.0
 40
12.0
 40
12.0
 40
13.0
 40
13.0
 40
13.0
 40
14.0
 40
14.0
 40
14.0
 40
14.0
 10
691.4817825317004
 20
-292.6480000000001
 30
0.0
 10
666.5471831616014
 20
-200.6989000000003
 30
0.0
 10
611.8973845421715
 20
-131.8415999999997
 30
0.0
 10
528.3729999999996
 20
-86.13889999999992
 30
0.0
 10
494.5413875068334
 20
-67.62700000000041
 30
0.0
 10
458.266188423222
 20
-56.07369999999992
 30
0.0
 10
419.9682893907084
 20
-51.09559999999965
 30
0.0
 10
411.1856896125755
 20
-49.95399999999972
 30
0.0
 10
402.3830898349479
 20
-48.96699999999964
 30
0.0
 10
393.5896900570879
 20
-47.90890000000036
 30
0.0
 10
381.2370903691408
 20
-47.90890000000036
 30
0.0
 10
368.8845906811912
 20
-47.90890000000036
 30
0.0
 10
356.5320000000002
 20
-47.90890000000036
 30
0.0
 10
354.8935910346336
 20
-48.90390000000025
 30
0.0
 10
353.039691081467
 20
-48.82210000000032
 30
0.0
 10
351.2385911269666
 20
-48.91430000000037
 30
0.0
 10
332.7116915949955
 20
-49.86300000000028
 30
0.0
 10
314.4808920555442
 20
-52.8761999999997
 30
0.0
 10
296.5410925087417
 20
-57.42180000000008
 30
0.0
 10
224.8707943192858
 20
-75.58179999999993
 30
0.0
 10
165.201695826654
 20
-113.0722999999998
 30
0.0
 10
119.5731969793269
 20
-171.2070999999996
 30
0.0
 10
55.22000000000025
 20
-253.1989999999996
 30
0.0
 10
34.22900000000027
 20
-346.0294000000004
 30
0.0
 10
56.51760000000013
 20
-447.7330999999995
 30
0.0
 10
72.6864999999998
 20
-521.5118000000002
 30
0.0
 10
111.5578971818104
 20
-582.0031999999992
 30
0.0
 10
170.2514956990854
 20
-629.5365000000002
 30
0.0
 10
221.5460000000003
 20
-671.0776999999998
 30
0.0
 10
280.3977929165558
 20
-694.3541000000005
 30
0.0
 10
345.9806912597924
 20
-700.6425999999992
 30
0.0
 10
378.1743904465111
 20
-703.7296000000006
 30
0.0
 10
410.2404896364533
 20
-701.8909000000003
 30
0.0
 10
441.8070000000007
 20
-695.0434999999998
 30
0.0
 10
519.8867868665548
 20
-678.1062999999995
 30
0.0
 10
583.9987852469494
 20
-638.2615000000005
 30
0.0
 10
633.2207840034971
 20
-575.3096000000005
 30
0.0
 10
671.2801830420358
 20
-526.634
 30
0.0
 10
693.442482482169
 20
-471.2803000000004
 30
0.0
 10
700.0965823140723
 20
-409.7021999999997
 30
0.0
 10
704.3758822059681
 20
-370.1019999999999
 30
0.0
 10
701.8811822689895
 20
-330.9970999999996
 30
0.0
 10
691.4817825317004
 20
-292.6480000000001
 30
0.0
  0
SPLINE
  5
46
330
41
100
AcDbEntity
  8
Layer 1
370
     0
100
AcDbSpline
210
0.0
220
0.0
230
1.0
 70
    11
 71
     3
 72
    17
 73
    13
 74
     0
 42
0.0000000001
 43
0.0000000001
 12
1.0
 22
0.0
 32
0.0
 13
1.0
 23
0.0
 33
0.0
 40
0.0
 40
0.0
 40
0.0
 40
0.0
 40
1.0
 40
1.0
 40
1.0
 40
2.0
 40
2.0
 40
2.0
 40
3.0
 40
3.0
 40
3.0
 40
4.0
 40
4.0
 40
4.0
 40
4.0
 10
375.6729999999998
 20
-672.4516000000003
 30
0.0
 10
211.2634946630351
 20
-672.3487000000005
 30
0.0
 10
77.82600000000002
 20
-539.3953000000001
 30
0.0
 10
77.30209999999988
 20
-376.6039999999994
 30
0.0
 10
76.77030000000013
 20
-211.3918000000003
 30
0.0
 10
210.7110000000002
 20
-76.91150000000016
 30
0.0
 10
374.9361905283149
 20
-77.30509999999958
 30
0.0
 10
539.0908863814184
 20
-76.77229999999963
 30
0.0
 10
673.6771829814825
 20
-211.2498999999998
 30
0.0
 10
672.830083002882
 20
-377.5079000000005
 30
0.0
 10
672.0067830236803
 20
-539.0863000000008
 30
0.0
 10
538.2424864028508
 20
-672.5532999999996
 30
0.0
 10
375.6729999999998
 20
-672.4516000000003
 30
0.0
  0
ENDBLK
  5
44
330
41
100
AcDbEntity
  8
0
100
AcDbBlockEnd
  0
ENDSEC
  0
SECTION
  2
ENTITIES
  0
INSERT
  5
42
330
1F
100
AcDbEntity
  8
Layer 1
100
AcDbBlockReference
  2
block 2
 10
0.0
 20
0.0
 30
0.0
  0
SPLINE
  5
47
330
1F
100
AcDbEntity
  8
Layer 1
370
     0
100
AcDbSpline
210
0.0
220
0.0
230
1.0
 70
    11
 71
     3
 72
   104
 73
   100
 74
     0
 42
0.0000000001
 43
0.0000000001
 12
1.0
 22
0.0
 32
0.0
 13
1.0
 23
0.0
 33
0.0
 40
0.0
 40
0.0
 40
0.0
 40
0.0
 40
1.0
 40
1.0
 40
1.0
 40
2.0
 40
2.0
 40
2.0
 40
3.0
 40
3.0
 40
3.0
 40
4.0
 40
4.0
 40
4.0
 40
5.0
 40
5.0
 40
5.0
 40
6.0
 40
6.0
 40
6.0
 40
7.0
 40
7.0
 40
7.0
 40
8.0
 40
8.0
 40
8.0
 40
9.0
 40
9.0
 40
9.0
 40
10.0
 40
10.0
 40
10.0
 40
11.0
 40
11.0
 40
11.0
 40
12.0
 40
12.0
 40
12.0
 40
13.0
 40
13.0
 40
13.0
 40
14.0
 40
14.0
 40
14.0
 40
15.0
 40
15.0
 40
15.0
 40
16.0
 40
16.0
 40
16.0
 40
17.0
 40
17.0
 40
17.0
 40
18.0
 40
18.0
 40
18.0
 40
19.0
 40
19.0
 40
19.0
 40
20.0
 40
20.0
 40
20.0
 40
21.0
 40
21.0
 40
21.0
 40
22.0
 40
22.0
 40
22.0
 40
23.0
 40
23.0
 40
23.0
 40
24.0
 40
24.0
 40
24.0
 40
25.0
 40
25.0
 40
25.0
 40
26.0
 40
26.0
 40
26.0
 40
27.0
 40
27.0
 40
27.0
 40
28.0
 40
28.0
 40
28.0
 40
29.0
 40
29.0
 40
29.0
 40
30.0
 40
30.0
 40
30.0
 40
31.0
 40
31.0
 40
31.0
 40
32.0
 40
32.0
 40
32.0
 40
33.0
 40
33.0
 40
33.0
 40
33.0
 10
579.7632853539471
 20
-397.9567999999999
 30
0.0
 10
574.1026854969459
 20
-500.1659999999993
 30
0.0
 10
497.4173874341795
 20
-577.6926000000003
 30
0.0
 10
403.2577898128511
 20
-590.5293999999994
 30
0.0
 10
296.109092519655
 20
-605.1368999999995
 30
0.0
 10
201.9050948994482
 20
-536.3369000000002
 30
0.0
 10
176.7259999999997
 20
-439.2487999999994
 30
0.0
 10
151.8778961632415
 20
-343.4377000000004
 30
0.0
 10
199.0988949703387
 20
-251.6023000000005
 30
0.0
 10
269.823893183675
 20
-210.9858999999997
 30
0.0
 10
249.9998936844713
 20
-234.8127000000004
 30
0.0
 10
235.3486940545918
 20
-259.8397000000004
 30
0.0
 10
228.4647942284937
 20
-288.8357999999998
 30
0.0
 10
220.6151944267913
 20
-321.8994999999995
 30
0.0
 10
222.9022943690143
 20
-353.6912000000002
 30
0.0
 10
242.0770938846181
 20
-382.8502000000008
 30
0.0
 10
252.3621936247946
 20
-398.4907000000003
 30
0.0
 10
265.3803932959272
 20
-411.1566000000003
 30
0.0
 10
283.5382928372201
 20
-417.3518000000004
 30
0.0
 10
307.4075922342308
 20
-425.4956999999995
 30
0.0
 10
329.7610000000004
 20
-415.8744999999999
 30
0.0
 10
340.6135913953767
 20
-393.0529999999999
 30
0.0
 10
358.4094909458145
 20
-355.6306000000004
 30
0.0
 10
345.0765912826319
 20
-298.3725999999997
 30
0.0
 10
312.8598920964941
 20
-273.5662000000002
 30
0.0
 10
307.5238922312928
 20
-269.4576999999999
 30
0.0
 10
301.6184923804758
 20
-266.3950999999997
 30
0.0
 10
294.9099999999999
 20
-263.3968999999997
 30
0.0
 10
302.8523923493049
 20
-254.5559000000003
 30
0.0
 10
310.4712921568353
 20
-246.1036000000004
 30
0.0
 10
318.0513919653458
 20
-237.6167999999998
 30
0.0
 10
319.8520919198563
 20
-235.6007
 30
0.0
 10
320.9188918929067
 20
-237.5405000000001
 30
0.0
 10
322.1513918617711
 20
-238.2914000000001
 30
0.0
 10
334.9513915384159
 20
-246.0889999999999
 30
0.0
 10
346.7036912415278
 20
-255.0326000000005
 30
0.0
 10
354.4492910458575
 20
-269.0352999999996
 30
0.0
 10
355.38419102224
 20
-262.1857
 30
0.0
 10
352.5575910936459
 20
-249.0415000000003
 30
0.0
 10
348.2560000000003
 20
-238.1929
 30
0.0
 10
345.6435912683082
 20
-231.6041999999998
 30
0.0
 10
342.6053913450596
 20
-225.2330000000002
 30
0.0
 10
338.6980914437663
 20
-219.3281999999999
 30
0.0
 10
337.3480914778702
 20
-217.2882
 30
0.0
 10
337.4221914759983
 20
-215.9735000000001
 30
0.0
 10
339.0688914343991
 20
-214.1706999999997
 30
0.0
 10
350.088791156013
 20
-202.1058000000003
 30
0.0
 10
361.0810908783242
 20
-190.0138999999999
 30
0.0
 10
371.9052906048819
 20
-177.7740999999996
 30
0.0
 10
374.2844905447782
 20
-175.0837000000001
 30
0.0
 10
375.6053905114095
 20
-174.8380999999999
 30
0.0
 10
378.12139044785
 20
-177.6922999999997
 30
0.0
 10
388.9260901749003
 20
-189.9494000000004
 30
0.0
 10
399.8922898978708
 20
-202.0677999999998
 30
0.0
 10
410.9990896172894
 20
-214.0519000000004
 30
0.0
 10
413.2671895599924
 20
-216.4993000000004
 30
0.0
 10
412.2356895860503
 20
-218.0311000000002
 30
0.0
 10
410.9138896194418
 20
-220.1260000000002
 30
0.0
 10
401.665289853081
 20
-234.7840999999999
 30
0.0
 10
396.5576899821099
 20
-250.8352999999997
 30
0.0
 10
394.7838900269198
 20
-267.9687000000004
 30
0.0
 10
395.8103900009883
 20
-268.4618
 30
0.0
 10
396.2811899890949
 20
-267.9578000000001
 30
0.0
 10
396.6338899801849
 20
-267.3464999999997
 30
0.0
 10
404.1464897904007
 20
-254.3247000000001
 30
0.0
 10
415.7782894965567
 20
-245.7494999999999
 30
0.0
 10
428.2191891822731
 20
-238.0396000000001
 30
0.0
 10
429.5830891478181
 20
-237.1943000000001
 30
0.0
 10
430.6983891196433
 20
-235.9445999999998
 30
0.0
 10
432.3595890776778
 20
-237.8302999999996
 30
0.0
 10
439.7858888900737
 20
-246.2604000000001
 30
0.0
 10
447.3143886998878
 20
-254.6005999999998
 30
0.0
 10
455.2287884999532
 20
-263.4458999999997
 30
0.0
 10
444.7147887655592
 20
-267.7152999999998
 30
0.0
 10
435.9200000000001
 20
-273.5583999999999
 30
0.0
 10
428.5546891737977
 20
-281.5398000000005
 30
0.0
 10
412.5249999999996
 20
-298.9106000000002
 30
0.0
 10
404.9487897701329
 20
-319.8609999999999
 30
0.0
 10
402.3400000000001
 20
-342.9138000000003
 30
0.0
 10
400.6245898793713
 20
-358.0711000000001
 30
0.0
 10
401.8136898493321
 20
-372.9903999999997
 30
0.0
 10
407.0930000000008
 20
-387.3973999999998
 30
0.0
 10
418.4760894284045
 20
-418.4614000000001
 30
0.0
 10
449.4071886470192
 20
-429.5411000000004
 30
0.0
 10
477.7403879312624
 20
-412.2772000000004
 30
0.0
 10
504.5128872549321
 20
-395.9642000000003
 30
0.0
 10
519.4498868775918
 20
-371.2417999999998
 30
0.0
 10
524.2234867570005
 20
-340.8010999999997
 30
0.0
 10
529.9303866128321
 20
-304.4094999999998
 30
0.0
 10
519.7511868699803
 20
-271.1619000000001
 30
0.0
 10
501.2335873377742
 20
-240.067
 30
0.0
 10
495.3753874857648
 20
-230.2298000000001
 30
0.0
 10
488.6852876547709
 20
-220.9672
 30
0.0
 10
481.1830000000009
 20
-212.1364999999996
 30
0.0
 10
498.7028874017051
 20
-215.9306999999999
 30
0.0
 10
539.6121863682492
 20
-259.1590999999999
 30
0.0
 10
556.242785948125
 20
-290.9224999999997
 30
0.0
 10
573.8218855040395
 20
-324.4974000000002
 30
0.0
 10
581.8513853011973
 20
-360.2543999999998
 30
0.0
 10
579.7632853539471
 20
-397.9567999999999
 30
0.0
  0
SPLINE
  5
48
330
1F
100
AcDbEntity
  8
Layer 1
370
     0
100
AcDbSpline
210
0.0
220
0.0
230
1.0
 70
    11
 71
     3
 72
    89
 73
    85
 74
     0
 42
0.0000000001
 43
0.0000000001
 12
1.0
 22
0.0
 32
0.0
 13
1.0
 23
0.0
 33
0.0
 40
0.0
 40
0.0
 40
0.0
 40
0.0
 40
1.0
 40
1.0
 40
1.0
 40
2.0
 40
2.0
 40
2.0
 40
3.0
 40
3.0
 40
3.0
 40
4.0
 40
4.0
 40
4.0
 40
5.0
 40
5.0
 40
5.0
 40
6.0
 40
6.0
 40
6.0
 40
7.0
 40
7.0
 40
7.0
 40
8.0
 40
8.0
 40
8.0
 40
9.0
 40
9.0
 40
9.0
 40
10.0
 40
10.0
 40
10.0
 40
11.0
 40
11.0
 40
11.0
 40
12.0
 40
12.0
 40
12.0
 40
13.0
 40
13.0
 40
13.0
 40
14.0
 40
14.0
 40
14.0
 40
15.0
 40
15.0
 40
15.0
 40
16.0
 40
16.0
 40
16.0
 40
17.0
 40
17.0
 40
17.0
 40
18.0
 40
18.0
 40
18.0
 40
19.0
 40
19.0
 40
19.0
 40
20.0
 40
20.0
 40
20.0
 40
21.0
 40
21.0
 40
21.0
 40
22.0
 40
22.0
 40
22.0
 40
23.0
 40
23.0
 40
23.0
 40
24.0
 40
24.0
 40
24.0
 40
25.0
 40
25.0
 40
25.0
 40
26.0
 40
26.0
 40
26.0
 40
27.0
 40
27.0
 40
27.0
 40
28.0
 40
28.0
 40
28.0
 40
28.0
 10
461.2494883478576
 20
-317.4292999999998
 30
0.0
 10
460.0901883771439
 20
-318.5146000000004
 30
0.0
 10
458.7091884120309
 20
-319.3630000000003
 30
0.0
 10
457.4310000000005
 20
-320.3215
 30
0.0
 10
457.7495884362725
 20
-320.7430000000004
 30
0.0
 10
458.0681884282239
 20
-321.1644999999999
 30
0.0
 10
458.3867884201754
 20
-321.5861000000004
 30
0.0
 10
470.9538881027038
 20
-316.6633000000002
 30
0.0
 10
483.5255877851159
 20
-311.7520999999997
 30
0.0
 10
496.0858874678161
 20
-306.8122999999996
 30
0.0
 10
500.9688873444611
 20
-304.8918999999996
 30
0.0
 10
505.8166872219954
 20
-302.8818000000001
 30
0.0
 10
510.7000870986303
 20
-300.9628000000002
 30
0.0
 10
513.0352870396382
 20
-300.0452000000005
 30
0.0
 10
514.6174869996685
 20
-300.4771000000001
 30
0.0
 10
514.5195870021416
 20
-303.4258
 30
0.0
 10
514.5134870022957
 20
-303.6063999999997
 30
0.0
 10
514.5286870019117
 20
-303.7898000000005
 30
0.0
 10
514.5535870012827
 20
-303.9691999999995
 30
0.0
 10
516.3077869569679
 20
-316.6382000000003
 30
0.0
 10
516.2935869573266
 20
-316.6120000000001
 30
0.0
 10
504.9231872445671
 20
-322.8289000000004
 30
0.0
 10
492.5536875570469
 20
-329.5920999999998
 30
0.0
 10
480.2144878687614
 20
-336.4106000000002
 30
0.0
 10
467.8620881808092
 20
-343.2049999999999
 30
0.0
 10
467.9471881786594
 20
-343.5412999999999
 30
0.0
 10
468.0321881765121
 20
-343.8774000000003
 30
0.0
 10
468.1172881743623
 20
-344.2136
 30
0.0
 10
481.2181878434058
 20
-342.5132999999996
 30
0.0
 10
494.323487512338
 20
-340.8462
 30
0.0
 10
507.4182871815356
 20
-339.1000000000004
 30
0.0
 10
515.0072869898213
 20
-338.0879999999997
 30
0.0
 10
514.8664869933782
 20
-338.2137000000002
 30
0.0
 10
513.5574870264463
 20
-345.7712000000001
 30
0.0
 10
512.0837870636751
 20
-354.2791999999999
 30
0.0
 10
508.5424871531359
 20
-359.4862000000003
 30
0.0
 10
499.0650873925551
 20
-360.7142999999996
 30
0.0
 10
490.2232876159178
 20
-361.8599999999997
 30
0.0
 10
481.6306878329851
 20
-364.9297999999999
 30
0.0
 10
473.0180880505577
 20
-368.1965
 30
0.0
 10
482.5815878089634
 20
-369.4423999999999
 30
0.0
 10
492.1451875673665
 20
-370.6884
 30
0.0
 10
502.4636873066993
 20
-372.0326999999997
 30
0.0
 10
499.2877873869293
 20
-378.4537
 30
0.0
 10
495.1195874922269
 20
-383.7816999999995
 30
0.0
 10
490.4937876090844
 20
-388.7672000000002
 30
0.0
 10
485.0673877461668
 20
-394.6154999999999
 30
0.0
 10
477.7613879307319
 20
-389.9477000000006
 30
0.0
 10
470.8320881057807
 20
-392.2602999999999
 30
0.0
 10
474.6790880085973
 20
-393.9964999999993
 30
0.0
 10
478.0010000000002
 20
-395.4958000000006
 30
0.0
 10
481.7334878303882
 20
-397.1803999999993
 30
0.0
 10
471.2304880957163
 20
-405.4452000000001
 30
0.0
 10
460.5476883655865
 20
-411.4680000000008
 30
0.0
 10
446.7457887142518
 20
-410.0568999999996
 30
0.0
 10
434.1955890312965
 20
-408.7739000000001
 30
0.0
 10
425.4580892520244
 20
-402.5108999999993
 30
0.0
 10
419.7644893958568
 20
-391.6124
 30
0.0
 10
411.4671896054642
 20
-375.7300999999998
 30
0.0
 10
410.1317896391993
 20
-358.6899999999996
 30
0.0
 10
412.3243895838095
 20
-341.3143
 30
0.0
 10
414.5136895285032
 20
-323.9654
 30
0.0
 10
420.3590000000004
 20
-307.8576000000003
 30
0.0
 10
431.08288910993
 20
-293.8450000000003
 30
0.0
 10
438.4615889235283
 20
-284.2034000000003
 30
0.0
 10
447.489188695472
 20
-276.5987999999998
 30
0.0
 10
460.5782883648135
 20
-272.3482999999997
 30
0.0
 10
454.1373885275243
 20
-282.6310000000003
 30
0.0
 10
448.2970886750627
 20
-291.9549999999999
 30
0.0
 10
442.4566888226036
 20
-301.2790999999997
 30
0.0
 10
442.771688814646
 20
-301.5847999999996
 30
0.0
 10
443.0866888066885
 20
-301.8904000000002
 30
0.0
 10
443.4016887987309
 20
-302.1961000000001
 30
0.0
 10
452.9823885567021
 20
-295.2618000000002
 30
0.0
 10
462.5560000000005
 20
-288.3176000000003
 30
0.0
 10
472.1457880725939
 20
-281.3958000000002
 30
0.0
 10
481.6987878312648
 20
-274.5003999999999
 30
0.0
 10
491.267887589529
 20
-267.6274000000003
 30
0.0
 10
500.8507873474446
 20
-260.7296999999999
 30
0.0
 10
508.1337871634605
 20
-273.3163000000004
 30
0.0
 10
508.1460000000006
 20
-273.3292000000001
 30
0.0
 10
498.1628874153466
 20
-282.7389999999996
 30
0.0
 10
485.8755877257499
 20
-294.3207000000002
 30
0.0
 10
473.5751880364842
 20
-305.8885
 30
0.0
 10
461.2494883478576
 20
-317.4292999999998
 30
0.0
  0
SPLINE
  5
49
330
1F
100
AcDbEntity
  8
Layer 1
370
     0
100
AcDbSpline
210
0.0
220
0.0
230
1.0
 70
    11
 71
     3
 72
    92
 73
    88
 74
     0
 42
0.0000000001
 43
0.0000000001
 12
1.0
 22
0.0
 32
0.0
 13
1.0
 23
0.0
 33
0.0
 40
0.0
 40
0.0
 40
0.0
 40
0.0
 40
1.0
 40
1.0
 40
1.0
 40
2.0
 40
2.0
 40
2.0
 40
3.0
 40
3.0
 40
3.0
 40
4.0
 40
4.0
 40
4.0
 40
5.0
 40
5.0
 40
5.0
 40
6.0
 40
6.0
 40
6.0
 40
7.0
 40
7.0
 40
7.0
 40
8.0
 40
8.0
 40
8.0
 40
9.0
 40
9.0
 40
9.0
 40
10.0
 40
10.0
 40
10.0
 40
11.0
 40
11.0
 40
11.0
 40
12.0
 40
12.0
 40
12.0
 40
13.0
 40
13.0
 40
13.0
 40
14.0
 40
14.0
 40
14.0
 40
15.0
 40
15.0
 40
15.0
 40
16.0
 40
16.0
 40
16.0
 40
17.0
 40
17.0
 40
17.0
 40
18.0
 40
18.0
 40
18.0
 40
19.0
 40
19.0
 40
19.0
 40
20.0
 40
20.0
 40
20.0
 40
21.0
 40
21.0
 40
21.0
 40
22.0
 40
22.0
 40
22.0
 40
23.0
 40
23.0
 40
23.0
 40
24.0
 40
24.0
 40
24.0
 40
25.0
 40
25.0
 40
25.0
 40
26.0
 40
26.0
 40
26.0
 40
27.0
 40
27.0
 40
27.0
 40
28.0
 40
28.0
 40
28.0
 40
29.0
 40
29.0
 40
29.0
 40
29.0
 10
268.6424932135196
 20
-397.3387000000002
 30
0.0
 10
271.6833931367
 20
-394.5781000000006
 30
0.0
 10
276.1195930246322
 20
-394.7976999999992
 30
0.0
 10
279.2144929464484
 20
-391.5185000000001
 30
0.0
 10
277.5919999999996
 20
-391.5185000000001
 30
0.0
 10
276.6525930111675
 20
-391.3575000000001
 30
0.0
 10
275.7870000000003
 20
-391.5422999999992
 30
0.0
 10
259.65669344052
 20
-394.9855000000007
 30
0.0
 10
254.2997935758467
 20
-383.0182999999997
 30
0.0
 10
247.4016937501074
 20
-371.9691999999995
 30
0.0
 10
257.8746934855371
 20
-370.6131000000005
 30
0.0
 10
267.6914932375439
 20
-369.3419999999996
 30
0.0
 10
278.0262929764649
 20
-368.0038000000004
 30
0.0
 10
274.8694930562124
 20
-365.5429999999997
 30
0.0
 10
271.3261931457237
 20
-365.5420999999997
 30
0.0
 10
268.1318932264185
 20
-364.6553000000004
 30
0.0
 10
261.8623933847994
 20
-362.9146000000001
 30
0.0
 10
255.5114935452366
 20
-361.4636
 30
0.0
 10
249.2578937032158
 20
-359.6710999999996
 30
0.0
 10
246.0720000000001
 20
-358.7578999999996
 30
0.0
 10
241.7946938917521
 20
-359.4843000000001
 30
0.0
 10
240.0413939360442
 20
-356.1198999999997
 30
0.0
 10
237.537493999298
 20
-351.3149999999996
 30
0.0
 10
236.4354940271369
 20
-345.8849
 30
0.0
 10
235.6885940460052
 20
-340.5099
 30
0.0
 10
235.279294056345
 20
-337.5640000000003
 30
0.0
 10
237.7820000000002
 20
-338.7260999999999
 30
0.0
 10
239.1295939590782
 20
-338.8773000000001
 30
0.0
 10
249.7514936907464
 20
-340.0682999999999
 30
0.0
 10
260.3639999999996
 20
-341.3455000000004
 30
0.0
 10
270.9755931545806
 20
-342.6265999999996
 30
0.0
 10
274.7388930595116
 20
-343.0810000000001
 30
0.0
 10
278.4918929647029
 20
-343.6196
 30
0.0
 10
282.9250000000002
 20
-344.2097000000003
 30
0.0
 10
279.1931929469865
 20
-340.6138000000001
 30
0.0
 10
274.9285930547194
 20
-339.0775999999996
 30
0.0
 10
271.1052931513041
 20
-336.9111000000003
 30
0.0
 10
260.547593418014
 20
-330.9285
 30
0.0
 10
249.9796936849816
 20
-324.9426999999996
 30
0.0
 10
239.1796939578126
 20
-319.4202000000005
 30
0.0
 10
235.080694061362
 20
-317.3240999999998
 30
0.0
 10
234.0422940875942
 20
-314.7714999999998
 30
0.0
 10
234.5073940758448
 20
-310.4821000000002
 30
0.0
 10
235.7068940455429
 20
-299.4177
 30
0.0
 10
235.5377940498147
 20
-299.4628000000002
 30
0.0
 10
245.7346937922193
 20
-303.4871999999996
 30
0.0
 10
260.3743934223894
 20
-309.2651999999998
 30
0.0
 10
275.0547930515313
 20
-314.9395999999997
 30
0.0
 10
289.7106926812921
 20
-320.6765999999998
 30
0.0
 10
290.5330926605166
 20
-320.9984999999997
 30
0.0
 10
291.2616926421106
 20
-321.6419999999998
 30
0.0
 10
292.723
 20
-320.9166000000005
 30
0.0
 10
286.0793927730265
 20
-314.6071000000002
 30
0.0
 10
279.6099999999997
 20
-308.4169000000002
 30
0.0
 10
273.0890931011891
 20
-302.2816999999995
 30
0.0
 10
264.4957933182741
 20
-294.1967999999997
 30
0.0
 10
256.0014935328581
 20
-285.9975999999997
 30
0.0
 10
247.1718937559126
 20
-278.1779999999999
 30
0.0
 10
243.9541938371985
 20
-275.3281999999999
 30
0.0
 10
242.9931938614754
 20
-272.8419999999996
 30
0.0
 10
245.1681938065303
 20
-269.0427
 30
0.0
 10
246.6710937685639
 20
-266.4173000000001
 30
0.0
 10
247.7207937420462
 20
-263.5322999999999
 30
0.0
 10
249.1507937059214
 20
-260.3698000000004
 30
0.0
 10
268.5265932164475
 20
-274.3778000000002
 30
0.0
 10
287.6017927345674
 20
-288.1686
 30
0.0
 10
306.6770922526848
 20
-301.9593999999997
 30
0.0
 10
307.0649999999996
 20
-301.6853000000001
 30
0.0
 10
307.4528922330865
 20
-301.4112000000005
 30
0.0
 10
307.8407922232873
 20
-301.1369999999997
 30
0.0
 10
302.1087923680898
 20
-292.0114999999996
 30
0.0
 10
296.3767925128923
 20
-282.8859000000002
 30
0.0
 10
290.0902926717026
 20
-272.8775999999998
 30
0.0
 10
298.3367924633785
 20
-274.8425999999999
 30
0.0
 10
304.2757923133468
 20
-278.9762000000001
 30
0.0
 10
309.6656921771864
 20
-283.8365999999996
 30
0.0
 10
325.1262917866188
 20
-297.7785000000003
 30
0.0
 10
333.1696915834254
 20
-315.7280000000001
 30
0.0
 10
336.8501914904482
 20
-335.8308999999999
 30
0.0
 10
339.559391422008
 20
-350.6283999999996
 30
0.0
 10
339.2240000000002
 20
-365.3006999999998
 30
0.0
 10
335.1854915325021
 20
-379.9670000000006
 30
0.0
 10
326.1037917619251
 20
-412.9483
 30
0.0
 10
296.580192507754
 20
-417.3528999999999
 30
0.0
 10
274.4780930661
 20
-401.6818999999996
 30
0.0
 10
272.567
 20
-400.3268000000007
 30
0.0
 10
270.7166931611209
 20
-398.8857000000007
 30
0.0
 10
268.6424932135196
 20
-397.3387000000002
 30
0.0
  0
SPLINE
  5
4A
330
1F
100
AcDbEntity
  8
Layer 1
370
     0
100
AcDbSpline
210
0.0
220
0.0
230
1.0
 70
    11
 71
     3
 72
    17
 73
    13
 74
     0
 42
0.0000000001
 43
0.0000000001
 12
1.0
 22
0.0
 32
0.0
 13
1.0
 23
0.0
 33
0.0
 40
0.0
 40
0.0
 40
0.0
 40
0.0
 40
1.0
 40
1.0
 40
1.0
 40
2.0
 40
2.0
 40
2.0
 40
3.0
 40
3.0
 40
3.0
 40
4.0
 40
4.0
 40
4.0
 40
4.0
 10
424.1389999999992
 20
-228.058
 30
0.0
 10
440.931188861141
 20
-192.5105999999996
 30
0.0
 10
457.7231884369394
 20
-156.9630999999999
 30
0.0
 10
474.5152880127353
 20
-121.4156999999996
 30
0.0
 10
474.8773880035878
 20
-121.5517
 30
0.0
 10
475.2395879944379
 20
-121.6877000000004
 30
0.0
 10
475.6016879852905
 20
-121.8236999999999
 30
0.0
 10
463.8368882824943
 20
-158.1700000000001
 30
0.0
 10
452.0718885797032
 20
-194.5164000000004
 30
0.0
 10
439.939388886196
 20
-231.9980999999998
 30
0.0
 10
435.5906889960534
 20
-225.5276999999996
 30
0.0
 10
431.0926891096824
 20
-220.9654
 30
0.0
 10
424.1389999999992
 20
-228.058
 30
0.0
  0
SPLINE
  5
4B
330
1F
100
AcDbEntity
  8
Layer 1
370
     0
100
AcDbSpline
210
0.0
220
0.0
230
1.0
 70
    11
 71
     3
 72
    20
 73
    16
 74
     0
 42
0.0000000001
 43
0.0000000001
 12
1.0
 22
0.0
 32
0.0
 13
1.0
 23
0.0
 33
0.0
 40
0.0
 40
0.0
 40
0.0
 40
0.0
 40
1.0
 40
1.0
 40
1.0
 40
2.0
 40
2.0
 40
2.0
 40
3.0
 40
3.0
 40
3.0
 40
4.0
 40
4.0
 40
4.0
 40
5.0
 40
5.0
 40
5.0
 40
5.0
 10
310.1602921646918
 20
-231.1797999999999
 30
0.0
 10
298.1961924669304
 20
-194.1659
 30
0.0
 10
286.3928927651068
 20
-157.6499000000003
 30
0.0
 10
274.5896930632807
 20
-121.134
 30
0.0
 10
274.922393054876
 20
-121.0114999999996
 30
0.0
 10
275.2551930464688
 20
-120.8890000000001
 30
0.0
 10
275.5879999999997
 20
-120.7664999999997
 30
0.0
 10
292.4473926121573
 20
-156.5389999999998
 30
0.0
 10
309.3069999999998
 20
-192.3113999999996
 30
0.0
 10
326.3561917555489
 20
-228.4862000000003
 30
0.0
 10
322.3702918562412
 20
-227.9080999999996
 30
0.0
 10
320.5424919024153
 20
-223.3184000000001
 30
0.0
 10
317.4685919800686
 20
-224.3806999999997
 30
0.0
 10
314.8519999999999
 20
-225.2849999999999
 30
0.0
 10
313.0008920929322
 20
-228.4044999999996
 30
0.0
 10
310.1602921646918
 20
-231.1797999999999
 30
0.0
  0
SPLINE
  5
4C
330
1F
100
AcDbEntity
  8
Layer 1
370
     0
100
AcDbSpline
210
0.0
220
0.0
230
1.0
 70
    11
 71
     3
 72
    23
 73
    19
 74
     0
 42
0.0000000001
 43
0.0000000001
 12
1.0
 22
0.0
 32
0.0
 13
1.0
 23
0.0
 33
0.0
 40
0.0
 40
0.0
 40
0.0
 40
0.0
 40
1.0
 40
1.0
 40
1.0
 40
2.0
 40
2.0
 40
2.0
 40
3.0
 40
3.0
 40
3.0
 40
4.0
 40
4.0
 40
4.0
 40
5.0
 40
5.0
 40
5.0
 40
6.0
 40
6.0
 40
6.0
 40
6.0
 10
345.9185912613611
 20
-191.0829000000003
 30
0.0
 10
344.08229130775
 20
-161.0088999999998
 30
0.0
 10
342.2775913533405
 20
-131.4524000000001
 30
0.0
 10
340.4728913989311
 20
-101.8959000000004
 30
0.0
 10
340.692591393381
 20
-101.8554000000004
 30
0.0
 10
340.9121913878334
 20
-101.8149000000003
 30
0.0
 10
341.1318913822834
 20
-101.7744000000002
 30
0.0
 10
343.3196913270149
 20
-112.8257000000003
 30
0.0
 10
345.5506912706551
 20
-123.8688000000002
 30
0.0
 10
347.6840000000002
 20
-134.9306999999999
 30
0.0
 10
350.1121911554219
 20
-147.5223999999998
 30
0.0
 10
352.2145911023108
 20
-160.1828999999998
 30
0.0
 10
354.9440000000004
 20
-172.7078000000001
 30
0.0
 10
356.1153910037683
 20
-178.0829000000003
 30
0.0
 10
355.9172910087727
 20
-182.4612999999999
 30
0.0
 10
351.3760911234931
 20
-186.1043
 30
0.0
 10
349.6260000000002
 20
-187.5082000000002
 30
0.0
 10
348.5879999999997
 20
-189.7542000000003
 30
0.0
 10
345.9185912613611
 20
-191.0829000000003
 30
0.0
  0
SPLINE
  5
4D
330
1F
100
AcDbEntity
  8
Layer 1
370
     0
100
AcDbSpline
210
0.0
220
0.0
230
1.0
 70
    11
 71
     3
 72
    17
 73
    13
 74
     0
 42
0.0000000001
 43
0.0000000001
 12
1.0
 22
0.0
 32
0.0
 13
1.0
 23
0.0
 33
0.0
 40
0.0
 40
0.0
 40
0.0
 40
0.0
 40
1.0
 40
1.0
 40
1.0
 40
2.0
 40
2.0
 40
2.0
 40
3.0
 40
3.0
 40
3.0
 40
4.0
 40
4.0
 40
4.0
 40
4.0
 10
395.5292900080894
 20
-173.2020000000002
 30
0.0
 10
399.9865898954886
 20
-149.9229999999998
 30
0.0
 10
404.4260897833374
 20
-126.6405999999997
 30
0.0
 10
408.8875896706304
 20
-103.3622999999998
 30
0.0
 10
408.9738896684503
 20
-102.9114
 30
0.0
 10
409.2435896616371
 20
-102.4957000000004
 30
0.0
 10
410.0857896403613
 20
-100.5195000000003
 30
0.0
 10
408.1301896897639
 20
-131.6361999999999
 30
0.0
 10
406.2770897365772
 20
-161.1198999999997
 30
0.0
 10
404.4202897834839
 20
-190.6639999999998
 30
0.0
 10
397.0095899706939
 20
-187.0483999999997
 30
0.0
 10
394.0220900461645
 20
-181.0736999999999
 30
0.0
 10
395.5292900080894
 20
-173.2020000000002
 30
0.0
  0
SPLINE
  5
4E
330
1F
100
AcDbEntity
  8
Layer 1
370
     0
100
AcDbSpline
210
0.0
220
0.0
230
1.0
 70
    11
 71
     3
 72
    26
 73
    22
 74
     0
 42
0.0000000001
 43
0.0000000001
 12
1.0
 22
0.0
 32
0.0
 13
1.0
 23
0.0
 33
0.0
 40
0.0
 40
0.0
 40
0.0
 40
0.0
 40
1.0
 40
1.0
 40
1.0
 40
2.0
 40
2.0
 40
2.0
 40
3.0
 40
3.0
 40
3.0
 40
4.0
 40
4.0
 40
4.0
 40
5.0
 40
5.0
 40
5.0
 40
6.0
 40
6.0
 40
6.0
 40
7.0
 40
7.0
 40
7.0
 40
7.0
 10
475.1284879972445
 20
-225.1976000000004
 30
0.0
 10
476.6175879596267
 20
-223.3465999999999
 30
0.0
 10
477.8457879285997
 20
-222.9724999999999
 30
0.0
 10
479.1548878955291
 20
-225.2726000000002
 30
0.0
 10
479.3322878910476
 20
-225.5843999999997
 30
0.0
 10
479.5838878846916
 20
-225.8555999999999
 30
0.0
 10
479.8124878789167
 20
-226.1364000000003
 30
0.0
 10
485.4255877371179
 20
-233.0316999999995
 30
0.0
 10
485.4258877371103
 20
-233.0316000000003
 30
0.0
 10
480.6642878573984
 20
-240.6171999999997
 30
0.0
 10
476.3438879665409
 20
-247.4997999999996
 30
0.0
 10
472.0232880756885
 20
-254.3823000000002
 30
0.0
 10
467.5116881896611
 20
-261.5693000000001
 30
0.0
 10
466.716388209752
 20
-261.0308999999997
 30
0.0
 10
466.3768882183285
 20
-260.8707000000004
 30
0.0
 10
466.1260000000002
 20
-260.6211999999996
 30
0.0
 10
454.8146885104143
 20
-249.3729000000003
 30
0.0
 10
454.8261885101238
 20
-249.3809000000001
 30
0.0
 10
465.0652882514623
 20
-237.3157000000001
 30
0.0
 10
468.4626881656368
 20
-233.3125
 30
0.0
 10
471.8376880803771
 20
-229.2883000000002
 30
0.0
 10
475.1284879972445
 20
-225.1976000000004
 30
0.0
  0
SPLINE
  5
4F
330
1F
100
AcDbEntity
  8
Layer 1
370
     0
100
AcDbSpline
210
0.0
220
0.0
230
1.0
 70
    11
 71
     3
 72
    23
 73
    19
 74
     0
 42
0.0000000001
 43
0.0000000001
 12
1.0
 22
0.0
 32
0.0
 13
1.0
 23
0.0
 33
0.0
 40
0.0
 40
0.0
 40
0.0
 40
0.0
 40
1.0
 40
1.0
 40
1.0
 40
2.0
 40
2.0
 40
2.0
 40
3.0
 40
3.0
 40
3.0
 40
4.0
 40
4.0
 40
4.0
 40
5.0
 40
5.0
 40
5.0
 40
6.0
 40
6.0
 40
6.0
 40
6.0
 10
269.7003931867948
 20
-226.9669000000004
 30
0.0
 10
271.5127931410098
 20
-223.1013000000003
 30
0.0
 10
273.6230930876991
 20
-222.8308999999999
 30
0.0
 10
276.4883930153155
 20
-226.5753999999997
 30
0.0
 10
281.6496928849301
 20
-233.3200999999999
 30
0.0
 10
287.2363927437982
 20
-239.7417999999998
 30
0.0
 10
292.719192605291
 20
-246.2361000000001
 30
0.0
 10
294.0208925724073
 20
-247.7779
 30
0.0
 10
294.7931925528974
 20
-248.9609
 30
0.0
 10
293.0288925974673
 20
-250.7858999999999
 30
0.0
 10
289.6702926823127
 20
-254.2600000000002
 30
0.0
 10
286.5158927619996
 20
-257.9314999999997
 30
0.0
 10
283.0460000000003
 20
-261.7767000000003
 30
0.0
 10
277.3419999999996
 20
-252.7134999999998
 30
0.0
 10
272.0245931280806
 20
-244.1149999999998
 30
0.0
 10
266.5454932664943
 20
-235.6207000000004
 30
0.0
 10
263.7031933382968
 20
-231.2143999999998
 30
0.0
 10
268.4107932193729
 20
-229.7174999999997
 30
0.0
 10
269.7003931867948
 20
-226.9669000000004
 30
0.0
  0
SPLINE
  5
50
330
1F
100
AcDbEntity
  8
Layer 1
370
     0
100
AcDbSpline
210
0.0
220
0.0
230
1.0
 70
    11
 71
     3
 72
    20
 73
    16
 74
     0
 42
0.0000000001
 43
0.0000000001
 12
1.0
 22
0.0
 32
0.0
 13
1.0
 23
0.0
 33
0.0
 40
0.0
 40
0.0
 40
0.0
 40
0.0
 40
1.0
 40
1.0
 40
1.0
 40
2.0
 40
2.0
 40
2.0
 40
3.0
 40
3.0
 40
3.0
 40
4.0
 40
4.0
 40
4.0
 40
5.0
 40
5.0
 40
5.0
 40
5.0
 10
493.0365875448479
 20
-203.6346999999996
 30
0.0
 10
506.8515871958516
 20
-187.0955000000004
 30
0.0
 10
520.5529999999999
 20
-170.4614000000001
 30
0.0
 10
534.2926865026311
 20
-153.8591999999999
 30
0.0
 10
534.5762864954668
 20
-154.1424999999999
 30
0.0
 10
534.8598864883024
 20
-154.4256999999998
 30
0.0
 10
535.1435864811356
 20
-154.7089999999998
 30
0.0
 10
523.798286767742
 20
-172.6171000000004
 30
0.0
 10
512.3963870557782
 20
-190.4897000000001
 30
0.0
 10
501.1482873399291
 20
-208.4587000000001
 30
0.0
 10
498.399787409362
 20
-212.8491999999997
 30
0.0
 10
496.6481874536112
 20
-208.8046999999997
 30
0.0
 10
494.6948875029557
 20
-207.8981000000003
 30
0.0
 10
493.1757875413314
 20
-207.1931000000004
 30
0.0
 10
490.6941876040219
 20
-206.4390000000003
 30
0.0
 10
493.0365875448479
 20
-203.6346999999996
 30
0.0
  0
SPLINE
  5
51
330
1F
100
AcDbEntity
  8
Layer 1
370
     0
100
AcDbSpline
210
0.0
220
0.0
230
1.0
 70
    11
 71
     3
 72
    23
 73
    19
 74
     0
 42
0.0000000001
 43
0.0000000001
 12
1.0
 22
0.0
 32
0.0
 13
1.0
 23
0.0
 33
0.0
 40
0.0
 40
0.0
 40
0.0
 40
0.0
 40
1.0
 40
1.0
 40
1.0
 40
2.0
 40
2.0
 40
2.0
 40
3.0
 40
3.0
 40
3.0
 40
4.0
 40
4.0
 40
4.0
 40
5.0
 40
5.0
 40
5.0
 40
6.0
 40
6.0
 40
6.0
 40
6.0
 10
249.4309999999996
 20
-208.6517000000003
 30
0.0
 10
238.2773939806066
 20
-190.9368000000004
 30
0.0
 10
227.0632942638986
 20
-173.2599
 30
0.0
 10
215.8661945467611
 20
-155.5724
 30
0.0
 10
216.1940945384777
 20
-155.2712000000001
 30
0.0
 10
216.5219999999999
 20
-154.9701000000005
 30
0.0
 10
216.8498945219108
 20
-154.6688999999997
 30
0.0
 10
228.7361942216376
 20
-169.0208000000002
 30
0.0
 10
240.6223939213669
 20
-183.3726999999999
 30
0.0
 10
252.509
 20
-197.7244000000001
 30
0.0
 10
253.3175936006592
 20
-198.7007000000003
 30
0.0
 10
254.1189999999997
 20
-199.6832000000004
 30
0.0
 10
254.9405935596587
 20
-200.6486000000004
 30
0.0
 10
259.3648934478915
 20
-205.8464000000004
 30
0.0
 10
259.2520000000004
 20
-205.9796999999999
 30
0.0
 10
253.2793936016242
 20
-209.5028000000002
 30
0.0
 10
251.385893649458
 20
-210.6197000000002
 30
0.0
 10
250.544593670711
 20
-210.4202999999998
 30
0.0
 10
249.4309999999996
 20
-208.6517000000003
 30
0.0
  0
SPLINE
  5
52
330
1F
100
AcDbEntity
  8
Layer 1
370
     0
100
AcDbSpline
210
0.0
220
0.0
230
1.0
 70
    11
 71
     3
 72
    23
 73
    19
 74
     0
 42
0.0000000001
 43
0.0000000001
 12
1.0
 22
0.0
 32
0.0
 13
1.0
 23
0.0
 33
0.0
 40
0.0
 40
0.0
 40
0.0
 40
0.0
 40
1.0
 40
1.0
 40
1.0
 40
2.0
 40
2.0
 40
2.0
 40
3.0
 40
3.0
 40
3.0
 40
4.0
 40
4.0
 40
4.0
 40
5.0
 40
5.0
 40
5.0
 40
6.0
 40
6.0
 40
6.0
 40
6.0
 10
211.3190000000004
 20
-244.0048999999999
 30
0.0
 10
196.0518950473124
 20
-229.9838
 30
0.0
 10
181.0822954254763
 20
-215.6388999999999
 30
0.0
 10
166.0053958063509
 20
-201.4106000000002
 30
0.0
 10
166.2551958000404
 20
-201.1071000000002
 30
0.0
 10
166.5050957937274
 20
-200.8035
 30
0.0
 10
166.7548957874169
 20
-200.4998999999998
 30
0.0
 10
175.0330000000004
 20
-206.5128000000004
 30
0.0
 10
183.3085953692353
 20
-212.5294000000004
 30
0.0
 10
191.590095160027
 20
-218.5375999999997
 30
0.0
 10
199.95229494878
 20
-224.6045000000004
 30
0.0
 10
208.3090947376695
 20
-230.6790000000001
 30
0.0
 10
216.6953945258138
 20
-236.7123000000001
 30
0.0
 10
218.3882944830475
 20
-237.9301999999998
 30
0.0
 10
219.6760944505149
 20
-239.2853999999998
 30
0.0
 10
217.2831945109647
 20
-240.7622000000001
 30
0.0
 10
215.3388945600818
 20
-241.9621999999999
 30
0.0
 10
214.7063945760601
 20
-247.1157999999996
 30
0.0
 10
211.3190000000004
 20
-244.0048999999999
 30
0.0
  0
SPLINE
  5
53
330
1F
100
AcDbEntity
  8
Layer 1
370
     0
100
AcDbSpline
210
0.0
220
0.0
230
1.0
 70
    11
 71
     3
 72
    20
 73
    16
 74
     0
 42
0.0000000001
 43
0.0000000001
 12
1.0
 22
0.0
 32
0.0
 13
1.0
 23
0.0
 33
0.0
 40
0.0
 40
0.0
 40
0.0
 40
0.0
 40
1.0
 40
1.0
 40
1.0
 40
2.0
 40
2.0
 40
2.0
 40
3.0
 40
3.0
 40
3.0
 40
4.0
 40
4.0
 40
4.0
 40
5.0
 40
5.0
 40
5.0
 40
5.0
 10
533.9497865112935
 20
-236.5953
 30
0.0
 10
550.9752860811932
 20
-224.3136000000004
 30
0.0
 10
567.9715856518305
 20
-211.9916000000003
 30
0.0
 10
584.9763852222532
 20
-199.6813000000002
 30
0.0
 10
585.1847852169885
 20
-199.9269000000004
 30
0.0
 10
585.3932852117214
 20
-200.1724999999997
 30
0.0
 10
585.6016852064568
 20
-200.4182000000001
 30
0.0
 10
570.2697855937731
 20
-214.8267999999998
 30
0.0
 10
554.9243859814305
 20
-229.2214000000004
 30
0.0
 10
539.614886368181
 20
-243.6539000000002
 30
0.0
 10
535.5723864703032
 20
-247.4647999999997
 30
0.0
 10
535.0247864841367
 20
-242.3172999999997
 30
0.0
 10
533.1212865322232
 20
-241.0601999999999
 30
0.0
 10
530.5212865979047
 20
-239.3431
 30
0.0
 10
532.1254865573792
 20
-237.9114
 30
0.0
 10
533.9497865112935
 20
-236.5953
 30
0.0
  0
SPLINE
  5
54
330
1F
100
AcDbEntity
  8
Layer 1
370
     0
100
AcDbSpline
210
0.0
220
0.0
230
1.0
 70
    11
 71
     3
 72
    20
 73
    16
 74
     0
 42
0.0000000001
 43
0.0000000001
 12
1.0
 22
0.0
 32
0.0
 13
1.0
 23
0.0
 33
0.0
 40
0.0
 40
0.0
 40
0.0
 40
0.0
 40
1.0
 40
1.0
 40
1.0
 40
2.0
 40
2.0
 40
2.0
 40
3.0
 40
3.0
 40
3.0
 40
4.0
 40
4.0
 40
4.0
 40
5.0
 40
5.0
 40
5.0
 40
5.0
 10
564.6937857346347
 20
-279.7681000000002
 30
0.0
 10
583.8102852517113
 20
-272.3441999999995
 30
0.0
 10
602.8590000000004
 20
-264.7461000000003
 30
0.0
 10
621.9304842887141
 20
-257.2066999999997
 30
0.0
 10
622.0810842849096
 20
-257.4943000000003
 30
0.0
 10
622.2315842811076
 20
-257.7819
 30
0.0
 10
622.3819999999996
 20
-258.0694999999996
 30
0.0
 10
604.5144847286792
 20
-267.8987999999999
 30
0.0
 10
586.6160851808309
 20
-277.6727000000001
 30
0.0
 10
568.8022856308453
 20
-287.5982000000004
 30
0.0
 10
564.5875857373176
 20
-289.9465
 30
0.0
 10
565.0702857251235
 20
-285.8209999999999
 30
0.0
 10
563.8797857551981
 20
-284.2719999999999
 30
0.0
 10
562.7537857836433
 20
-282.8068999999996
 30
0.0
 10
561.4210000000003
 20
-281.0391
 30
0.0
 10
564.6937857346347
 20
-279.7681000000002
 30
0.0
  0
SPLINE
  5
55
330
1F
100
AcDbEntity
  8
Layer 1
370
     0
100
AcDbSpline
210
0.0
220
0.0
230
1.0
 70
    11
 71
     3
 72
    23
 73
    19
 74
     0
 42
0.0000000001
 43
0.0000000001
 12
1.0
 22
0.0
 32
0.0
 13
1.0
 23
0.0
 33
0.0
 40
0.0
 40
0.0
 40
0.0
 40
0.0
 40
1.0
 40
1.0
 40
1.0
 40
2.0
 40
2.0
 40
2.0
 40
3.0
 40
3.0
 40
3.0
 40
4.0
 40
4.0
 40
4.0
 40
5.0
 40
5.0
 40
5.0
 40
6.0
 40
6.0
 40
6.0
 40
6.0
 10
181.8188954068683
 20
-287.6313
 30
0.0
 10
164.5391958433902
 20
-278.2372999999998
 30
0.0
 10
147.3740962770171
 20
-268.6328999999996
 30
0.0
 10
130.1673967116949
 20
-259.1046999999999
 30
0.0
 10
130.3822967062661
 20
-258.7523000000001
 30
0.0
 10
130.5972967008347
 20
-258.3998000000001
 30
0.0
 10
130.8122966954033
 20
-258.0474000000004
 30
0.0
 10
141.5130964250784
 20
-262.2335999999996
 30
0.0
 10
152.2207961545791
 20
-266.4025000000001
 30
0.0
 10
162.9125958844816
 20
-270.6121000000003
 30
0.0
 10
170.3006956978425
 20
-273.5209000000004
 30
0.0
 10
177.6455955122947
 20
-276.5407999999998
 30
0.0
 10
185.055095325115
 20
-279.3937999999998
 30
0.0
 10
187.4404952648547
 20
-280.3122999999996
 30
0.0
 10
188.505595237948
 20
-281.5951999999997
 30
0.0
 10
186.5617952870525
 20
-283.6585999999998
 30
0.0
 10
185.1516953226746
 20
-285.1554999999998
 30
0.0
 10
185.7457953076664
 20
-289.7662
 30
0.0
 10
181.8188954068683
 20
-287.6313
 30
0.0
  0
SPLINE
  5
56
330
1F
100
AcDbEntity
  8
Layer 1
370
     0
100
AcDbSpline
210
0.0
220
0.0
230
1.0
 70
    11
 71
     3
 72
    20
 73
    16
 74
     0
 42
0.0000000001
 43
0.0000000001
 12
1.0
 22
0.0
 32
0.0
 13
1.0
 23
0.0
 33
0.0
 40
0.0
 40
0.0
 40
0.0
 40
0.0
 40
1.0
 40
1.0
 40
1.0
 40
2.0
 40
2.0
 40
2.0
 40
3.0
 40
3.0
 40
3.0
 40
4.0
 40
4.0
 40
4.0
 40
5.0
 40
5.0
 40
5.0
 40
5.0
 10
585.6546852051179
 20
-329.4579000000003
 30
0.0
 10
604.3545847327186
 20
-327.1797999999999
 30
0.0
 10
623.0534842603447
 20
-324.8928999999998
 30
0.0
 10
641.7547837879101
 20
-322.6266999999998
 30
0.0
 10
642.0894837794549
 20
-322.5861000000004
 30
0.0
 10
642.4510000000009
 20
-322.7651999999998
 30
0.0
 10
643.9110000000001
 20
-323.0856999999996
 30
0.0
 10
624.4500842250636
 20
-328.1360000000004
 30
0.0
 10
606.0882846889217
 20
-332.8517000000002
 30
0.0
 10
587.7606851519158
 20
-337.6970000000001
 30
0.0
 10
583.8881852497434
 20
-338.7208000000001
 30
0.0
 10
583.9427852483641
 20
-336.1953000000003
 30
0.0
 10
583.0728852703396
 20
-333.7035999999998
 30
0.0
 10
582.0546852960615
 20
-330.7870999999996
 30
0.0
 10
582.9740852728355
 20
-329.7844000000005
 30
0.0
 10
585.6546852051179
 20
-329.4579000000003
 30
0.0
  0
SPLINE
  5
57
330
1F
100
AcDbEntity
  8
Layer 1
370
     0
100
AcDbSpline
210
0.0
220
0.0
230
1.0
 70
    11
 71
     3
 72
    23
 73
    19
 74
     0
 42
0.0000000001
 43
0.0000000001
 12
1.0
 22
0.0
 32
0.0
 13
1.0
 23
0.0
 33
0.0
 40
0.0
 40
0.0
 40
0.0
 40
0.0
 40
1.0
 40
1.0
 40
1.0
 40
2.0
 40
2.0
 40
2.0
 40
3.0
 40
3.0
 40
3.0
 40
4.0
 40
4.0
 40
4.0
 40
5.0
 40
5.0
 40
5.0
 40
6.0
 40
6.0
 40
6.0
 40
6.0
 10
162.5741958930303
 20
-337.4953999999998
 30
0.0
 10
144.4694963503935
 20
-332.7165999999997
 30
0.0
 10
126.3322968085777
 20
-328.0609000000004
 30
0.0
 10
108.2071972664562
 20
-323.3594000000003
 30
0.0
 10
108.2813972645818
 20
-323.0330000000004
 30
0.0
 10
108.3556972627048
 20
-322.7065000000002
 30
0.0
 10
108.4298972608303
 20
-322.3801000000003
 30
0.0
 10
118.8198969983569
 20
-323.6145999999999
 30
0.0
 10
129.2130967358025
 20
-324.8229000000001
 30
0.0
 10
139.5988964734352
 20
-326.0919999999996
 30
0.0
 10
147.6779999999999
 20
-327.0792000000001
 30
0.0
 10
155.7491960654443
 20
-328.1328000000003
 30
0.0
 10
163.8211958615284
 20
-329.1778999999997
 30
0.0
 10
165.9071958088316
 20
-329.4479000000001
 30
0.0
 10
168.608695740586
 20
-329.1342000000004
 30
0.0
 10
167.170495776918
 20
-332.7993999999999
 30
0.0
 10
166.2849999999999
 20
-335.0559999999996
 30
0.0
 10
167.2173957757332
 20
-338.7209999999995
 30
0.0
 10
162.5741958930303
 20
-337.4953999999998
 30
0.0
  0
SPLINE
  5
58
330
1F
100
AcDbEntity
  8
Layer 1
370
     0
100
AcDbSpline
210
0.0
220
0.0
230
1.0
 70
    11
 71
     3
 72
    20
 73
    16
 74
     0
 42
0.0000000001
 43
0.0000000001
 12
1.0
 22
0.0
 32
0.0
 13
1.0
 23
0.0
 33
0.0
 40
0.0
 40
0.0
 40
0.0
 40
0.0
 40
1.0
 40
1.0
 40
1.0
 40
2.0
 40
2.0
 40
2.0
 40
3.0
 40
3.0
 40
3.0
 40
4.0
 40
4.0
 40
4.0
 40
5.0
 40
5.0
 40
5.0
 40
5.0
 10
101.2430000000004
 20
-391.2662
 30
0.0
 10
101.2257974428212
 20
-391.0280000000002
 30
0.0
 10
101.2085974432557
 20
-390.7896999999994
 30
0.0
 10
101.1913974436902
 20
-390.5514000000003
 30
0.0
 10
118.7728969995442
 20
-388.2764000000006
 30
0.0
 10
136.3497965555143
 20
-385.9650999999994
 30
0.0
 10
153.9383961111889
 20
-383.7459999999992
 30
0.0
 10
160.0783959560795
 20
-382.9712999999992
 30
0.0
 10
160.7673959386739
 20
-383.7078000000001
 30
0.0
 10
160.3810000000003
 20
-388.6461999999992
 30
0.0
 10
160.2035959529167
 20
-390.9140000000007
 30
0.0
 10
159.2091959780373
 20
-391.2903000000006
 30
0.0
 10
157.3056960261238
 20
-391.2867999999999
 30
0.0
 10
138.6181964982097
 20
-391.2527000000009
 30
0.0
 10
119.9305969702982
 20
-391.2662
 30
0.0
 10
101.2430000000004
 20
-391.2662
 30
0.0
  0
SPLINE
  5
59
330
1F
100
AcDbEntity
  8
Layer 1
370
     0
100
AcDbSpline
210
0.0
220
0.0
230
1.0
 70
    11
 71
     3
 72
    23
 73
    19
 74
     0
 42
0.0000000001
 43
0.0000000001
 12
1.0
 22
0.0
 32
0.0
 13
1.0
 23
0.0
 33
0.0
 40
0.0
 40
0.0
 40
0.0
 40
0.0
 40
1.0
 40
1.0
 40
1.0
 40
2.0
 40
2.0
 40
2.0
 40
3.0
 40
3.0
 40
3.0
 40
4.0
 40
4.0
 40
4.0
 40
5.0
 40
5.0
 40
5.0
 40
6.0
 40
6.0
 40
6.0
 40
6.0
 10
631.5050840468393
 20
-388.4230000000007
 30
0.0
 10
636.6818839160624
 20
-389.0858000000007
 30
0.0
 10
641.85058378549
 20
-389.8120999999992
 30
0.0
 10
647.0230836548217
 20
-390.5095000000001
 30
0.0
 10
646.979683655918
 20
-390.7996000000003
 30
0.0
 10
646.9364836570094
 20
-391.0897000000004
 30
0.0
 10
646.8931836581032
 20
-391.3798999999999
 30
0.0
 10
628.9470000000001
 20
-391.3798999999999
 30
0.0
 10
611.0
 20
-391.2952999999998
 30
0.0
 10
593.055085018168
 20
-391.4462000000003
 30
0.0
 10
589.1341851172183
 20
-391.4791000000005
 30
0.0
 10
590.0197850948462
 20
-389.0648999999994
 30
0.0
 10
589.7627851013385
 20
-386.8097999999991
 30
0.0
 10
589.3675851113221
 20
-383.3415999999997
 30
0.0
 10
591.4654850583247
 20
-383.3629000000001
 30
0.0
 10
593.7946849994842
 20
-383.6537000000008
 30
0.0
 10
606.3672846818736
 20
-385.2232999999997
 30
0.0
 10
618.9373843643261
 20
-386.8140999999996
 30
0.0
 10
631.5050840468393
 20
-388.4230000000007
 30
0.0
  0
SPLINE
  5
5A
330
1F
100
AcDbEntity
  8
Layer 1
370
     0
100
AcDbSpline
210
0.0
220
0.0
230
1.0
 70
    11
 71
     3
 72
    20
 73
    16
 74
     0
 42
0.0000000001
 43
0.0000000001
 12
1.0
 22
0.0
 32
0.0
 13
1.0
 23
0.0
 33
0.0
 40
0.0
 40
0.0
 40
0.0
 40
0.0
 40
1.0
 40
1.0
 40
1.0
 40
2.0
 40
2.0
 40
2.0
 40
3.0
 40
3.0
 40
3.0
 40
4.0
 40
4.0
 40
4.0
 40
5.0
 40
5.0
 40
5.0
 40
5.0
 10
164.8877958345838
 20
-445.9554000000007
 30
0.0
 10
148.2081962559459
 20
-449.9379000000008
 30
0.0
 10
131.6363966745848
 20
-454.3721000000005
 30
0.0
 10
115.025197094219
 20
-458.6409999999996
 30
0.0
 10
114.8848970977633
 20
-458.3842999999997
 30
0.0
 10
114.7446971013051
 20
-458.1275999999998
 30
0.0
 10
114.6043971048493
 20
-457.8708000000006
 30
0.0
 10
130.7278966975355
 20
-451.4742999999999
 30
0.0
 10
146.8623962899437
 20
-445.1052999999993
 30
0.0
 10
162.9633958831982
 20
-438.6525000000001
 30
0.0
 10
165.4863958194619
 20
-437.6412999999993
 30
0.0
 10
166.571295792055
 20
-438.2278000000006
 30
0.0
 10
167.057795779765
 20
-440.9210000000003
 30
0.0
 10
167.4746957692332
 20
-443.2281999999996
 30
0.0
 10
168.8535957343993
 20
-445.0085999999992
 30
0.0
 10
164.8877958345838
 20
-445.9554000000007
 30
0.0
  0
SPLINE
  5
5B
330
1F
100
AcDbEntity
  8
Layer 1
370
     0
100
AcDbSpline
210
0.0
220
0.0
230
1.0
 70
    11
 71
     3
 72
    20
 73
    16
 74
     0
 42
0.0000000001
 43
0.0000000001
 12
1.0
 22
0.0
 32
0.0
 13
1.0
 23
0.0
 33
0.0
 40
0.0
 40
0.0
 40
0.0
 40
0.0
 40
1.0
 40
1.0
 40
1.0
 40
2.0
 40
2.0
 40
2.0
 40
3.0
 40
3.0
 40
3.0
 40
4.0
 40
4.0
 40
4.0
 40
5.0
 40
5.0
 40
5.0
 40
5.0
 10
586.8485851749574
 20
-438.7459999999992
 30
0.0
 10
602.7508847732315
 20
-445.1126000000004
 30
0.0
 10
618.6883843706164
 20
-451.3911000000007
 30
0.0
 10
634.6146839682842
 20
-457.6974000000009
 30
0.0
 10
634.5699999999997
 20
-458.0221999999994
 30
0.0
 10
634.5251839705452
 20
-458.3469000000005
 30
0.0
 10
634.4804839716744
 20
-458.6715999999997
 30
0.0
 10
617.9175843900885
 20
-454.4099999999999
 30
0.0
 10
601.3844848077497
 20
-450.0267000000003
 30
0.0
 10
584.7716852274243
 20
-445.9698000000008
 30
0.0
 10
580.441185336822
 20
-444.9123999999993
 30
0.0
 10
582.9913852723985
 20
-442.6385000000009
 30
0.0
 10
583.1585852681746
 20
-440.6785
 30
0.0
 10
583.378585262617
 20
-438.0966000000008
 30
0.0
 10
584.6215852312162
 20
-437.8544000000002
 30
0.0
 10
586.8485851749574
 20
-438.7459999999992
 30
0.0
  0
SPLINE
  5
5C
330
1F
100
AcDbEntity
  8
Layer 1
370
     0
100
AcDbSpline
210
0.0
220
0.0
230
1.0
 70
    11
 71
     3
 72
    20
 73
    16
 74
     0
 42
0.0000000001
 43
0.0000000001
 12
1.0
 22
0.0
 32
0.0
 13
1.0
 23
0.0
 33
0.0
 40
0.0
 40
0.0
 40
0.0
 40
0.0
 40
1.0
 40
1.0
 40
1.0
 40
2.0
 40
2.0
 40
2.0
 40
3.0
 40
3.0
 40
3.0
 40
4.0
 40
4.0
 40
4.0
 40
5.0
 40
5.0
 40
5.0
 40
5.0
 10
187.475595263968
 20
-492.1188999999995
 30
0.0
 10
188.1199999999999
 20
-493.6430999999993
 30
0.0
 10
190.7566951810804
 20
-495.2572
 30
0.0
 10
187.6141952604667
 20
-496.9703000000009
 30
0.0
 10
173.6987956119992
 20
-504.5562000000009
 30
0.0
 10
159.7927959632943
 20
-512.1594000000005
 30
0.0
 10
145.8832963146779
 20
-519.7563000000009
 30
0.0
 10
145.711096319028
 20
-519.4745000000003
 30
0.0
 10
145.5387963233807
 20
-519.1928000000007
 30
0.0
 10
145.3664963277333
 20
-518.9110999999994
 30
0.0
 10
158.1868960038628
 20
-509.5421000000006
 30
0.0
 10
171.0143956798129
 20
-500.1826999999994
 30
0.0
 10
183.8203953563061
 20
-490.7939999999999
 30
0.0
 10
185.7873953066155
 20
-489.3518999999997
 30
0.0
 10
186.8178952805829
 20
-490.5627000000004
 30
0.0
 10
187.475595263968
 20
-492.1188999999995
 30
0.0
  0
SPLINE
  5
5D
330
1F
100
AcDbEntity
  8
Layer 1
370
     0
100
AcDbSpline
210
0.0
220
0.0
230
1.0
 70
    11
 71
     3
 72
    23
 73
    19
 74
     0
 42
0.0000000001
 43
0.0000000001
 12
1.0
 22
0.0
 32
0.0
 13
1.0
 23
0.0
 33
0.0
 40
0.0
 40
0.0
 40
0.0
 40
0.0
 40
1.0
 40
1.0
 40
1.0
 40
2.0
 40
2.0
 40
2.0
 40
3.0
 40
3.0
 40
3.0
 40
4.0
 40
4.0
 40
4.0
 40
5.0
 40
5.0
 40
5.0
 40
6.0
 40
6.0
 40
6.0
 40
6.0
 10
566.3972856916007
 20
-490.9974000000002
 30
0.0
 10
579.1463853695313
 20
-500.3871999999992
 30
0.0
 10
591.9667850456608
 20
-509.6803999999993
 30
0.0
 10
604.7627847224066
 20
-519.0066999999999
 30
0.0
 10
604.587884726825
 20
-519.2919999999995
 30
0.0
 10
604.4130000000005
 20
-519.5773000000008
 30
0.0
 10
604.2381847356592
 20
-519.8626999999997
 30
0.0
 10
596.2373849377764
 20
-515.4940999999999
 30
0.0
 10
588.2307851400401
 20
-511.1358999999993
 30
0.0
 10
580.2375853419653
 20
-506.7533000000003
 30
0.0
 10
574.3733854901075
 20
-503.5380000000005
 30
0.0
 10
568.5914856361705
 20
-500.1646999999994
 30
0.0
 10
562.6461857863615
 20
-497.1082000000006
 30
0.0
 10
559.4614858668137
 20
-495.4709000000003
 30
0.0
 10
561.6650858111461
 20
-493.9613000000008
 30
0.0
 10
562.3968857926593
 20
-492.4002999999993
 30
0.0
 10
563.2187857718964
 20
-490.6471999999994
 30
0.0
 10
564.1021857495798
 20
-489.3071
 30
0.0
 10
566.3972856916007
 20
-490.9974000000002
 30
0.0
  0
SPLINE
  5
5E
330
1F
100
AcDbEntity
  8
Layer 1
370
     0
100
AcDbSpline
210
0.0
220
0.0
230
1.0
 70
    11
 71
     3
 72
    23
 73
    19
 74
     0
 42
0.0000000001
 43
0.0000000001
 12
1.0
 22
0.0
 32
0.0
 13
1.0
 23
0.0
 33
0.0
 40
0.0
 40
0.0
 40
0.0
 40
0.0
 40
1.0
 40
1.0
 40
1.0
 40
2.0
 40
2.0
 40
2.0
 40
3.0
 40
3.0
 40
3.0
 40
4.0
 40
4.0
 40
4.0
 40
5.0
 40
5.0
 40
5.0
 40
6.0
 40
6.0
 40
6.0
 40
6.0
 10
220.9847944174544
 20
-536.8821000000007
 30
0.0
 10
222.6973943741905
 20
-538.8052000000007
 30
0.0
 10
224.0225943407131
 20
-539.9534999999996
 30
0.0
 10
221.3421944084257
 20
-542.3868000000002
 30
0.0
 10
211.0039999999999
 20
-551.7718000000004
 30
0.0
 10
200.8944949249781
 20
-561.4086000000007
 30
0.0
 10
190.6996951825204
 20
-570.9516999999996
 30
0.0
 10
190.3707951908291
 20
-570.6908000000003
 30
0.0
 10
190.0418951991378
 20
-570.4298999999992
 30
0.0
 10
189.7129999999997
 20
-570.1690999999992
 30
0.0
 10
197.2604950167806
 20
-561.0020000000004
 30
0.0
 10
204.808
 20
-551.8348000000005
 30
0.0
 10
212.3554946354488
 20
-542.6677
 30
0.0
 10
213.7389999999996
 20
-540.9873000000007
 30
0.0
 10
215.1890945638661
 20
-539.3565999999992
 30
0.0
 10
216.486494531091
 20
-537.6121999999996
 30
0.0
 10
217.7961944980052
 20
-535.8513999999996
 30
0.0
 10
218.8267944719701
 20
-534.4588000000003
 30
0.0
 10
220.9847944174544
 20
-536.8821000000007
 30
0.0
  0
SPLINE
  5
5F
330
1F
100
AcDbEntity
  8
Layer 1
370
     0
100
AcDbSpline
210
0.0
220
0.0
230
1.0
 70
    11
 71
     3
 72
    20
 73
    16
 74
     0
 42
0.0000000001
 43
0.0000000001
 12
1.0
 22
0.0
 32
0.0
 13
1.0
 23
0.0
 33
0.0
 40
0.0
 40
0.0
 40
0.0
 40
0.0
 40
1.0
 40
1.0
 40
1.0
 40
2.0
 40
2.0
 40
2.0
 40
3.0
 40
3.0
 40
3.0
 40
4.0
 40
4.0
 40
4.0
 40
5.0
 40
5.0
 40
5.0
 40
5.0
 10
532.8750865384427
 20
-536.7852000000003
 30
0.0
 10
541.9597863089439
 20
-547.9864999999991
 30
0.0
 10
551.155486076641
 20
-559.0977999999996
 30
0.0
 10
560.3130858453005
 20
-570.2399000000005
 30
0.0
 10
559.9954858533238
 20
-570.5043000000005
 30
0.0
 10
559.6776858613521
 20
-570.7685999999994
 30
0.0
 10
559.3600858693753
 20
-571.0329999999994
 30
0.0
 10
549.0592861295954
 20
-561.3732
 30
0.0
 10
538.8510000000006
 20
-551.6114999999991
 30
0.0
 10
528.3963866515842
 20
-542.1208999999999
 30
0.0
 10
525.5918867224318
 20
-539.5750000000007
 30
0.0
 10
527.752386667853
 20
-538.5701000000008
 30
0.0
 10
529.0922866340043
 20
-537.0547999999999
 30
0.0
 10
530.2513866047229
 20
-535.7438000000002
 30
0.0
 10
531.2330000000002
 20
-534.7605999999996
 30
0.0
 10
532.8750865384427
 20
-536.7852000000003
 30
0.0
  0
SPLINE
  5
60
330
1F
100
AcDbEntity
  8
Layer 1
370
     0
100
AcDbSpline
210
0.0
220
0.0
230
1.0
 70
    11
 71
     3
 72
    20
 73
    16
 74
     0
 42
0.0000000001
 43
0.0000000001
 12
1.0
 22
0.0
 32
0.0
 13
1.0
 23
0.0
 33
0.0
 40
0.0
 40
0.0
 40
0.0
 40
0.0
 40
1.0
 40
1.0
 40
1.0
 40
2.0
 40
2.0
 40
2.0
 40
3.0
 40
3.0
 40
3.0
 40
4.0
 40
4.0
 40
4.0
 40
5.0
 40
5.0
 40
5.0
 40
5.0
 10
488.5826876573628
 20
-573.6998000000003
 30
0.0
 10
494.5827875057876
 20
-586.5840000000007
 30
0.0
 10
500.6668873520903
 20
-599.4290999999994
 30
0.0
 10
506.7238871990776
 20
-612.2867000000006
 30
0.0
 10
506.4826872051708
 20
-612.5143000000007
 30
0.0
 10
506.241487211264
 20
-612.7419000000009
 30
0.0
 10
506.0003872173547
 20
-612.9694999999992
 30
0.0
 10
498.3411874108424
 20
-600.9506000000001
 30
0.0
 10
490.7451876027335
 20
-588.8904999999995
 30
0.0
 10
482.9756877990076
 20
-576.9434000000001
 30
0.0
 10
481.1748878444996
 20
-574.1743000000006
 30
0.0
 10
482.687887806278
 20
-573.3320000000003
 30
0.0
 10
484.698487755486
 20
-572.0383000000002
 30
0.0
 10
487.0944876949579
 20
-570.4968000000008
 30
0.0
 10
487.7060876795076
 20
-571.8176000000003
 30
0.0
 10
488.5826876573628
 20
-573.6998000000003
 30
0.0
  0
SPLINE
  5
61
330
1F
100
AcDbEntity
  8
Layer 1
370
     0
100
AcDbSpline
210
0.0
220
0.0
230
1.0
 70
    11
 71
     3
 72
    20
 73
    16
 74
     0
 42
0.0000000001
 43
0.0000000001
 12
1.0
 22
0.0
 32
0.0
 13
1.0
 23
0.0
 33
0.0
 40
0.0
 40
0.0
 40
0.0
 40
0.0
 40
1.0
 40
1.0
 40
1.0
 40
2.0
 40
2.0
 40
2.0
 40
3.0
 40
3.0
 40
3.0
 40
4.0
 40
4.0
 40
4.0
 40
5.0
 40
5.0
 40
5.0
 40
5.0
 10
267.1861932503089
 20
-576.7101000000002
 30
0.0
 10
259.8159999999998
 20
-588.1188000000002
 30
0.0
 10
252.5506936200327
 20
-599.5951999999997
 30
0.0
 10
245.249593804474
 20
-611.0485000000008
 30
0.0
 10
244.8811938137806
 20
-610.9017000000003
 30
0.0
 10
244.5127938230871
 20
-610.7548999999999
 30
0.0
 10
244.1443938323937
 20
-610.6082000000006
 30
0.0
 10
250.0160936840621
 20
-598.0529000000006
 30
0.0
 10
255.9171935349877
 20
-585.5113000000001
 30
0.0
 10
261.7366933879748
 20
-572.9318999999996
 30
0.0
 10
263.0380000000005
 20
-570.1190000000006
 30
0.0
 10
264.5384933171954
 20
-571.7576000000008
 30
0.0
 10
266.0824932781907
 20
-572.4735999999994
 30
0.0
 10
268.1800932252008
 20
-573.4462999999996
 30
0.0
 10
268.5041932170134
 20
-574.6697999999997
 30
0.0
 10
267.1861932503089
 20
-576.7101000000002
 30
0.0
  0
SPLINE
  5
62
330
1F
100
AcDbEntity
  8
Layer 1
370
     0
100
AcDbSpline
210
0.0
220
0.0
230
1.0
 70
    11
 71
     3
 72
    20
 73
    16
 74
     0
 42
0.0000000001
 43
0.0000000001
 12
1.0
 22
0.0
 32
0.0
 13
1.0
 23
0.0
 33
0.0
 40
0.0
 40
0.0
 40
0.0
 40
0.0
 40
1.0
 40
1.0
 40
1.0
 40
2.0
 40
2.0
 40
2.0
 40
3.0
 40
3.0
 40
3.0
 40
4.0
 40
4.0
 40
4.0
 40
5.0
 40
5.0
 40
5.0
 40
5.0
 10
435.2987890034274
 20
-595.9961999999996
 30
0.0
 10
437.814188939883
 20
-609.3683000000001
 30
0.0
 10
440.3883888748533
 20
-622.7294000000002
 30
0.0
 10
442.9416888103515
 20
-636.0943000000007
 30
0.0
 10
442.5628888199208
 20
-636.1818000000003
 30
0.0
 10
442.1839999999993
 20
-636.2692000000006
 30
0.0
 10
441.8050888390644
 20
-636.3565999999992
 30
0.0
 10
437.698088942816
 20
-623.6834999999992
 30
0.0
 10
433.6472890451478
 20
-610.9915999999994
 30
0.0
 10
429.4359999999997
 20
-598.3531000000003
 30
0.0
 10
428.606889172479
 20
-595.8649999999998
 30
0.0
 10
429.5432891488235
 20
-595.1888999999992
 30
0.0
 10
431.6992890943584
 20
-594.7204000000002
 30
0.0
 10
433.2826890543583
 20
-594.3762999999999
 30
0.0
 10
434.789189016301
 20
-593.2875000000004
 30
0.0
 10
435.2987890034274
 20
-595.9961999999996
 30
0.0
  0
SPLINE
  5
63
330
1F
100
AcDbEntity
  8
Layer 1
370
     0
100
AcDbSpline
210
0.0
220
0.0
230
1.0
 70
    11
 71
     3
 72
    20
 73
    16
 74
     0
 42
0.0000000001
 43
0.0000000001
 12
1.0
 22
0.0
 32
0.0
 13
1.0
 23
0.0
 33
0.0
 40
0.0
 40
0.0
 40
0.0
 40
0.0
 40
1.0
 40
1.0
 40
1.0
 40
2.0
 40
2.0
 40
2.0
 40
3.0
 40
3.0
 40
3.0
 40
4.0
 40
4.0
 40
4.0
 40
5.0
 40
5.0
 40
5.0
 40
5.0
 10
378.1991904458846
 20
-606.4927000000007
 30
0.0
 10
377.3928904662534
 20
-618.1957000000002
 30
0.0
 10
376.6728904844422
 20
-629.9046999999991
 30
0.0
 10
375.8826905044043
 20
-641.6088
 30
0.0
 10
375.8147905061196
 20
-642.6144000000004
 30
0.0
 10
376.0683904997131
 20
-643.8328000000001
 30
0.0
 10
374.4212905413224
 20
-644.6622000000007
 30
0.0
 10
373.558590563116
 20
-631.7239000000009
 30
0.0
 10
372.7247905841796
 20
-619.1244999999999
 30
0.0
 10
371.8726906057054
 20
-606.5260999999991
 30
0.0
 10
371.7160000000003
 20
-604.2077000000008
 30
0.0
 10
371.6303906118264
 20
-602.3580000000002
 30
0.0
 10
375.0236905261045
 20
-602.3832999999995
 30
0.0
 10
378.3209999999999
 20
-602.4079999999994
 30
0.0
 10
378.3661904416658
 20
-604.0696000000007
 30
0.0
 10
378.1991904458846
 20
-606.4927000000007
 30
0.0
  0
SPLINE
  5
64
330
1F
100
AcDbEntity
  8
Layer 1
370
     0
100
AcDbSpline
210
0.0
220
0.0
230
1.0
 70
    11
 71
     3
 72
    20
 73
    16
 74
     0
 42
0.0000000001
 43
0.0000000001
 12
1.0
 22
0.0
 32
0.0
 13
1.0
 23
0.0
 33
0.0
 40
0.0
 40
0.0
 40
0.0
 40
0.0
 40
1.0
 40
1.0
 40
1.0
 40
2.0
 40
2.0
 40
2.0
 40
3.0
 40
3.0
 40
3.0
 40
4.0
 40
4.0
 40
4.0
 40
5.0
 40
5.0
 40
5.0
 40
5.0
 10
320.6109999999999
 20
-598.2921000000006
 30
0.0
 10
316.4719999999998
 20
-610.7178000000004
 30
0.0
 10
312.4815921060508
 20
-623.1931000000004
 30
0.0
 10
308.4364922082386
 20
-635.6499999999996
 30
0.0
 10
308.0423922181944
 20
-635.5357999999997
 30
0.0
 10
307.6480922281553
 20
-635.4215999999997
 30
0.0
 10
307.2539999999999
 20
-635.3073999999997
 30
0.0
 10
309.6941921764665
 20
-622.4164000000001
 30
0.0
 10
312.1195921151957
 20
-609.5226000000002
 30
0.0
 10
314.5932920527048
 20
-596.6381000000001
 30
0.0
 10
314.9053920448205
 20
-595.0121999999992
 30
0.0
 10
315.2564920359509
 20
-593.4236000000001
 30
0.0
 10
317.7467919730407
 20
-594.4858000000004
 30
0.0
 10
319.5827919266594
 20
-595.2690000000002
 30
0.0
 10
321.6207918751752
 20
-595.2607000000007
 30
0.0
 10
320.6109999999999
 20
-598.2921000000006
 30
0.0
  0
HATCH
  5
65
330
1F
100
AcDbEntity
  8
Layer 1
 62
     7
420
 16777215
100
AcDbHatch
 10
0.0
 20
0.0
 30
0.0
210
0.0
220
0.0
230
1.0
  2
SOLID
 70
     1
 71
     0
 91
       32
 92
        1
 93
        1
 72
     4
 94
        3
 73
     0
 74
     1
 95
       47
 96
       43
 40
0.0
 40
0.0
 40
0.0
 40
0.0
 40
1.0
 40
1.0
 40
1.0
 40
2.0
 40
2.0
 40
2.0
 40
3.0
 40
3.0
 40
3.0
 40
4.0
 40
4.0
 40
4.0
 40
5.0
 40
5.0
 40
5.0
 40
6.0
 40
6.0
 40
6.0
 40
7.0
 40
7.0
 40
7.0
 40
8.0
 40
8.0
 40
8.0
 40
9.0
 40
9.0
 40
9.0
 40
10.0
 40
10.0
 40
10.0
 40
11.0
 40
11.0
 40
11.0
 40
12.0
 40
12.0
 40
12.0
 40
13.0
 40
13.0
 40
13.0
 40
14.0
 40
14.0
 40
14.0
 40
14.0
 10
691.4817825317004
 20
-292.6480000000001
 10
666.5471831616014
 20
-200.6989000000003
 10
611.8973845421715
 20
-131.8415999999997
 10
528.3729999999996
 20
-86.13889999999992
 10
494.5413875068334
 20
-67.62700000000041
 10
458.266188423222
 20
-56.07369999999992
 10
419.9682893907084
 20
-51.09559999999965
 10
411.1856896125755
 20
-49.95399999999972
 10
402.3830898349479
 20
-48.96699999999964
 10
393.5896900570879
 20
-47.90890000000036
 10
381.2370903691408
 20
-47.90890000000036
 10
368.8845906811912
 20
-47.90890000000036
 10
356.5320000000002
 20
-47.90890000000036
 10
354.8935910346336
 20
-48.90390000000025
 10
353.039691081467
 20
-48.82210000000032
 10
351.2385911269666
 20
-48.91430000000037
 10
332.7116915949955
 20
-49.86300000000028
 10
314.4808920555442
 20
-52.8761999999997
 10
296.5410925087417
 20
-57.42180000000008
 10
224.8707943192858
 20
-75.58179999999993
 10
165.201695826654
 20
-113.0722999999998
 10
119.5731969793269
 20
-171.2070999999996
 10
55.22000000000025
 20
-253.1989999999996
 10
34.22900000000027
 20
-346.0294000000004
 10
56.51760000000013
 20
-447.7330999999995
 10
72.6864999999998
 20
-521.5118000000002
 10
111.5578971818104
 20
-582.0031999999992
 10
170.2514956990854
 20
-629.5365000000002
 10
221.5460000000003
 20
-671.0776999999998
 10
280.3977929165558
 20
-694.3541000000005
 10
345.9806912597924
 20
-700.6425999999992
 10
378.1743904465111
 20
-703.7296000000006
 10
410.2404896364533
 20
-701.8909000000003
 10
441.8070000000007
 20
-695.0434999999998
 10
519.8867868665548
 20
-678.1062999999995
 10
583.9987852469494
 20
-638.2615000000005
 10
633.2207840034971
 20
-575.3096000000005
 10
671.2801830420358
 20
-526.634
 10
693.442482482169
 20
-471.2803000000004
 10
700.0965823140723
 20
-409.7021999999997
 10
704.3758822059681
 20
-370.1019999999999
 10
701.8811822689895
 20
-330.9970999999996
 10
691.4817825317004
 20
-292.6480000000001
 97
        0
 97
        0
 92
        1
 93
        1
 72
     4
 94
        3
 73
     0
 74
     1
 95
       17
 96
       13
 40
0.0
 40
0.0
 40
0.0
 40
0.0
 40
1.0
 40
1.0
 40
1.0
 40
2.0
 40
2.0
 40
2.0
 40
3.0
 40
3.0
 40
3.0
 40
4.0
 40
4.0
 40
4.0
 40
4.0
 10
375.6729999999998
 20
-672.4516000000003
 10
211.2634946630351
 20
-672.3487000000005
 10
77.82600000000002
 20
-539.3953000000001
 10
77.30209999999988
 20
-376.6039999999994
 10
76.77030000000013
 20
-211.3918000000003
 10
210.7110000000002
 20
-76.91150000000016
 10
374.9361905283149
 20
-77.30509999999958
 10
539.0908863814184
 20
-76.77229999999963
 10
673.6771829814825
 20
-211.2498999999998
 10
672.830083002882
 20
-377.5079000000005
 10
672.0067830236803
 20
-539.0863000000008
 10
538.2424864028508
 20
-672.5532999999996
 10
375.6729999999998
 20
-672.4516000000003
 97
        0
 97
        0
 92
        1
 93
        1
 72
     4
 94
        3
 73
     0
 74
     1
 95
      104
 96
      100
 40
0.0
 40
0.0
 40
0.0
 40
0.0
 40
1.0
 40
1.0
 40
1.0
 40
2.0
 40
2.0
 40
2.0
 40
3.0
 40
3.0
 40
3.0
 40
4.0
 40
4.0
 40
4.0
 40
5.0
 40
5.0
 40
5.0
 40
6.0
 40
6.0
 40
6.0
 40
7.0
 40
7.0
 40
7.0
 40
8.0
 40
8.0
 40
8.0
 40
9.0
 40
9.0
 40
9.0
 40
10.0
 40
10.0
 40
10.0
 40
11.0
 40
11.0
 40
11.0
 40
12.0
 40
12.0
 40
12.0
 40
13.0
 40
13.0
 40
13.0
 40
14.0
 40
14.0
 40
14.0
 40
15.0
 40
15.0
 40
15.0
 40
16.0
 40
16.0
 40
16.0
 40
17.0
 40
17.0
 40
17.0
 40
18.0
 40
18.0
 40
18.0
 40
19.0
 40
19.0
 40
19.0
 40
20.0
 40
20.0
 40
20.0
 40
21.0
 40
21.0
 40
21.0
 40
22.0
 40
22.0
 40
22.0
 40
23.0
 40
23.0
 40
23.0
 40
24.0
 40
24.0
 40
24.0
 40
25.0
 40
25.0
 40
25.0
 40
26.0
 40
26.0
 40
26.0
 40
27.0
 40
27.0
 40
27.0
 40
28.0
 40
28.0
 40
28.0
 40
29.0
 40
29.0
 40
29.0
 40
30.0
 40
30.0
 40
30.0
 40
31.0
 40
31.0
 40
31.0
 40
32.0
 40
32.0
 40
32.0
 40
33.0
 40
33.0
 40
33.0
 40
33.0
 10
579.7632853539471
 20
-397.9567999999999
 10
574.1026854969459
 20
-500.1659999999993
 10
497.4173874341795
 20
-577.6926000000003
 10
403.2577898128511
 20
-590.5293999999994
 10
296.109092519655
 20
-605.1368999999995
 10
201.9050948994482
 20
-536.3369000000002
 10
176.7259999999997
 20
-439.2487999999994
 10
151.8778961632415
 20
-343.4377000000004
 10
199.0988949703387
 20
-251.6023000000005
 10
269.823893183675
 20
-210.9858999999997
 10
249.9998936844713
 20
-234.8127000000004
 10
235.3486940545918
 20
-259.8397000000004
 10
228.4647942284937
 20
-288.8357999999998
 10
220.6151944267913
 20
-321.8994999999995
 10
222.9022943690143
 20
-353.6912000000002
 10
242.0770938846181
 20
-382.8502000000008
 10
252.3621936247946
 20
-398.4907000000003
 10
265.3803932959272
 20
-411.1566000000003
 10
283.5382928372201
 20
-417.3518000000004
 10
307.4075922342308
 20
-425.4956999999995
 10
329.7610000000004
 20
-415.8744999999999
 10
340.6135913953767
 20
-393.0529999999999
 10
358.4094909458145
 20
-355.6306000000004
 10
345.0765912826319
 20
-298.3725999999997
 10
312.8598920964941
 20
-273.5662000000002
 10
307.5238922312928
 20
-269.4576999999999
 10
301.6184923804758
 20
-266.3950999999997
 10
294.9099999999999
 20
-263.3968999999997
 10
302.8523923493049
 20
-254.5559000000003
 10
310.4712921568353
 20
-246.1036000000004
 10
318.0513919653458
 20
-237.6167999999998
 10
319.8520919198563
 20
-235.6007
 10
320.9188918929067
 20
-237.5405000000001
 10
322.1513918617711
 20
-238.2914000000001
 10
334.9513915384159
 20
-246.0889999999999
 10
346.7036912415278
 20
-255.0326000000005
 10
354.4492910458575
 20
-269.0352999999996
 10
355.38419102224
 20
-262.1857
 10
352.5575910936459
 20
-249.0415000000003
 10
348.2560000000003
 20
-238.1929
 10
345.6435912683082
 20
-231.6041999999998
 10
342.6053913450596
 20
-225.2330000000002
 10
338.6980914437663
 20
-219.3281999999999
 10
337.3480914778702
 20
-217.2882
 10
337.4221914759983
 20
-215.9735000000001
 10
339.0688914343991
 20
-214.1706999999997
 10
350.088791156013
 20
-202.1058000000003
 10
361.0810908783242
 20
-190.0138999999999
 10
371.9052906048819
 20
-177.7740999999996
 10
374.2844905447782
 20
-175.0837000000001
 10
375.6053905114095
 20
-174.8380999999999
 10
378.12139044785
 20
-177.6922999999997
 10
388.9260901749003
 20
-189.9494000000004
 10
399.8922898978708
 20
-202.0677999999998
 10
410.9990896172894
 20
-214.0519000000004
 10
413.2671895599924
 20
-216.4993000000004
 10
412.2356895860503
 20
-218.0311000000002
 10
410.9138896194418
 20
-220.1260000000002
 10
401.665289853081
 20
-234.7840999999999
 10
396.5576899821099
 20
-250.8352999999997
 10
394.7838900269198
 20
-267.9687000000004
 10
395.8103900009883
 20
-268.4618
 10
396.2811899890949
 20
-267.9578000000001
 10
396.6338899801849
 20
-267.3464999999997
 10
404.1464897904007
 20
-254.3247000000001
 10
415.7782894965567
 20
-245.7494999999999
 10
428.2191891822731
 20
-238.0396000000001
 10
429.5830891478181
 20
-237.1943000000001
 10
430.6983891196433
 20
-235.9445999999998
 10
432.3595890776778
 20
-237.8302999999996
 10
439.7858888900737
 20
-246.2604000000001
 10
447.3143886998878
 20
-254.6005999999998
 10
455.2287884999532
 20
-263.4458999999997
 10
444.7147887655592
 20
-267.7152999999998
 10
435.9200000000001
 20
-273.5583999999999
 10
428.5546891737977
 20
-281.5398000000005
 10
412.5249999999996
 20
-298.9106000000002
 10
404.9487897701329
 20
-319.8609999999999
 10
402.3400000000001
 20
-342.9138000000003
 10
400.6245898793713
 20
-358.0711000000001
 10
401.8136898493321
 20
-372.9903999999997
 10
407.0930000000008
 20
-387.3973999999998
 10
418.4760894284045
 20
-418.4614000000001
 10
449.4071886470192
 20
-429.5411000000004
 10
477.7403879312624
 20
-412.2772000000004
 10
504.5128872549321
 20
-395.9642000000003
 10
519.4498868775918
 20
-371.2417999999998
 10
524.2234867570005
 20
-340.8010999999997
 10
529.9303866128321
 20
-304.4094999999998
 10
519.7511868699803
 20
-271.1619000000001
 10
501.2335873377742
 20
-240.067
 10
495.3753874857648
 20
-230.2298000000001
 10
488.6852876547709
 20
-220.9672
 10
481.1830000000009
 20
-212.1364999999996
 10
498.7028874017051
 20
-215.9306999999999
 10
539.6121863682492
 20
-259.1590999999999
 10
556.242785948125
 20
-290.9224999999997
 10
573.8218855040395
 20
-324.4974000000002
 10
581.8513853011973
 20
-360.2543999999998
 10
579.7632853539471
 20
-397.9567999999999
 97
        0
 97
        0
 92
        1
 93
        1
 72
     4
 94
        3
 73
     0
 74
     1
 95
       89
 96
       85
 40
0.0
 40
0.0
 40
0.0
 40
0.0
 40
1.0
 40
1.0
 40
1.0
 40
2.0
 40
2.0
 40
2.0
 40
3.0
 40
3.0
 40
3.0
 40
4.0
 40
4.0
 40
4.0
 40
5.0
 40
5.0
 40
5.0
 40
6.0
 40
6.0
 40
6.0
 40
7.0
 40
7.0
 40
7.0
 40
8.0
 40
8.0
 40
8.0
 40
9.0
 40
9.0
 40
9.0
 40
10.0
 40
10.0
 40
10.0
 40
11.0
 40
11.0
 40
11.0
 40
12.0
 40
12.0
 40
12.0
 40
13.0
 40
13.0
 40
13.0
 40
14.0
 40
14.0
 40
14.0
 40
15.0
 40
15.0
 40
15.0
 40
16.0
 40
16.0
 40
16.0
 40
17.0
 40
17.0
 40
17.0
 40
18.0
 40
18.0
 40
18.0
 40
19.0
 40
19.0
 40
19.0
 40
20.0
 40
20.0
 40
20.0
 40
21.0
 40
21.0
 40
21.0
 40
22.0
 40
22.0
 40
22.0
 40
23.0
 40
23.0
 40
23.0
 40
24.0
 40
24.0
 40
24.0
 40
25.0
 40
25.0
 40
25.0
 40
26.0
 40
26.0
 40
26.0
 40
27.0
 40
27.0
 40
27.0
 40
28.0
 40
28.0
 40
28.0
 40
28.0
 10
461.2494883478576
 20
-317.4292999999998
 10
460.0901883771439
 20
-318.5146000000004
 10
458.7091884120309
 20
-319.3630000000003
 10
457.4310000000005
 20
-320.3215
 10
457.7495884362725
 20
-320.7430000000004
 10
458.0681884282239
 20
-321.1644999999999
 10
458.3867884201754
 20
-321.5861000000004
 10
470.9538881027038
 20
-316.6633000000002
 10
483.5255877851159
 20
-311.7520999999997
 10
496.0858874678161
 20
-306.8122999999996
 10
500.9688873444611
 20
-304.8918999999996
 10
505.8166872219954
 20
-302.8818000000001
 10
510.7000870986303
 20
-300.9628000000002
 10
513.0352870396382
 20
-300.0452000000005
 10
514.6174869996685
 20
-300.4771000000001
 10
514.5195870021416
 20
-303.4258
 10
514.5134870022957
 20
-303.6063999999997
 10
514.5286870019117
 20
-303.7898000000005
 10
514.5535870012827
 20
-303.9691999999995
 10
516.3077869569679
 20
-316.6382000000003
 10
516.2935869573266
 20
-316.6120000000001
 10
504.9231872445671
 20
-322.8289000000004
 10
492.5536875570469
 20
-329.5920999999998
 10
480.2144878687614
 20
-336.4106000000002
 10
467.8620881808092
 20
-343.2049999999999
 10
467.9471881786594
 20
-343.5412999999999
 10
468.0321881765121
 20
-343.8774000000003
 10
468.1172881743623
 20
-344.2136
 10
481.2181878434058
 20
-342.5132999999996
 10
494.323487512338
 20
-340.8462
 10
507.4182871815356
 20
-339.1000000000004
 10
515.0072869898213
 20
-338.0879999999997
 10
514.8664869933782
 20
-338.2137000000002
 10
513.5574870264463
 20
-345.7712000000001
 10
512.0837870636751
 20
-354.2791999999999
 10
508.5424871531359
 20
-359.4862000000003
 10
499.0650873925551
 20
-360.7142999999996
 10
490.2232876159178
 20
-361.8599999999997
 10
481.6306878329851
 20
-364.9297999999999
 10
473.0180880505577
 20
-368.1965
 10
482.5815878089634
 20
-369.4423999999999
 10
492.1451875673665
 20
-370.6884
 10
502.4636873066993
 20
-372.0326999999997
 10
499.2877873869293
 20
-378.4537
 10
495.1195874922269
 20
-383.7816999999995
 10
490.4937876090844
 20
-388.7672000000002
 10
485.0673877461668
 20
-394.6154999999999
 10
477.7613879307319
 20
-389.9477000000006
 10
470.8320881057807
 20
-392.2602999999999
 10
474.6790880085973
 20
-393.9964999999993
 10
478.0010000000002
 20
-395.4958000000006
 10
481.7334878303882
 20
-397.1803999999993
 10
471.2304880957163
 20
-405.4452000000001
 10
460.5476883655865
 20
-411.4680000000008
 10
446.7457887142518
 20
-410.0568999999996
 10
434.1955890312965
 20
-408.7739000000001
 10
425.4580892520244
 20
-402.5108999999993
 10
419.7644893958568
 20
-391.6124
 10
411.4671896054642
 20
-375.7300999999998
 10
410.1317896391993
 20
-358.6899999999996
 10
412.3243895838095
 20
-341.3143
 10
414.5136895285032
 20
-323.9654
 10
420.3590000000004
 20
-307.8576000000003
 10
431.08288910993
 20
-293.8450000000003
 10
438.4615889235283
 20
-284.2034000000003
 10
447.489188695472
 20
-276.5987999999998
 10
460.5782883648135
 20
-272.3482999999997
 10
454.1373885275243
 20
-282.6310000000003
 10
448.2970886750627
 20
-291.9549999999999
 10
442.4566888226036
 20
-301.2790999999997
 10
442.771688814646
 20
-301.5847999999996
 10
443.0866888066885
 20
-301.8904000000002
 10
443.4016887987309
 20
-302.1961000000001
 10
452.9823885567021
 20
-295.2618000000002
 10
462.5560000000005
 20
-288.3176000000003
 10
472.1457880725939
 20
-281.3958000000002
 10
481.6987878312648
 20
-274.5003999999999
 10
491.267887589529
 20
-267.6274000000003
 10
500.8507873474446
 20
-260.7296999999999
 10
508.1337871634605
 20
-273.3163000000004
 10
508.1460000000006
 20
-273.3292000000001
 10
498.1628874153466
 20
-282.7389999999996
 10
485.8755877257499
 20
-294.3207000000002
 10
473.5751880364842
 20
-305.8885
 10
461.2494883478576
 20
-317.4292999999998
 97
        0
 97
        0
 92
        1
 93
        1
 72
     4
 94
        3
 73
     0
 74
     1
 95
       92
 96
       88
 40
0.0
 40
0.0
 40
0.0
 40
0.0
 40
1.0
 40
1.0
 40
1.0
 40
2.0
 40
2.0
 40
2.0
 40
3.0
 40
3.0
 40
3.0
 40
4.0
 40
4.0
 40
4.0
 40
5.0
 40
5.0
 40
5.0
 40
6.0
 40
6.0
 40
6.0
 40
7.0
 40
7.0
 40
7.0
 40
8.0
 40
8.0
 40
8.0
 40
9.0
 40
9.0
 40
9.0
 40
10.0
 40
10.0
 40
10.0
 40
11.0
 40
11.0
 40
11.0
 40
12.0
 40
12.0
 40
12.0
 40
13.0
 40
13.0
 40
13.0
 40
14.0
 40
14.0
 40
14.0
 40
15.0
 40
15.0
 40
15.0
 40
16.0
 40
16.0
 40
16.0
 40
17.0
 40
17.0
 40
17.0
 40
18.0
 40
18.0
 40
18.0
 40
19.0
 40
19.0
 40
19.0
 40
20.0
 40
20.0
 40
20.0
 40
21.0
 40
21.0
 40
21.0
 40
22.0
 40
22.0
 40
22.0
 40
23.0
 40
23.0
 40
23.0
 40
24.0
 40
24.0
 40
24.0
 40
25.0
 40
25.0
 40
25.0
 40
26.0
 40
26.0
 40
26.0
 40
27.0
 40
27.0
 40
27.0
 40
28.0
 40
28.0
 40
28.0
 40
29.0
 40
29.0
 40
29.0
 40
29.0
 10
268.6424932135196
 20
-397.3387000000002
 10
271.6833931367
 20
-394.5781000000006
 10
276.1195930246322
 20
-394.7976999999992
 10
279.2144929464484
 20
-391.5185000000001
 10
277.5919999999996
 20
-391.5185000000001
 10
276.6525930111675
 20
-391.3575000000001
 10
275.7870000000003
 20
-391.5422999999992
 10
259.65669344052
 20
-394.9855000000007
 10
254.2997935758467
 20
-383.0182999999997
 10
247.4016937501074
 20
-371.9691999999995
 10
257.8746934855371
 20
-370.6131000000005
 10
267.6914932375439
 20
-369.3419999999996
 10
278.0262929764649
 20
-368.0038000000004
 10
274.8694930562124
 20
-365.5429999999997
 10
271.3261931457237
 20
-365.5420999999997
 10
268.1318932264185
 20
-364.6553000000004
 10
261.8623933847994
 20
-362.9146000000001
 10
255.5114935452366
 20
-361.4636
 10
249.2578937032158
 20
-359.6710999999996
 10
246.0720000000001
 20
-358.7578999999996
 10
241.7946938917521
 20
-359.4843000000001
 10
240.0413939360442
 20
-356.1198999999997
 10
237.537493999298
 20
-351.3149999999996
 10
236.4354940271369
 20
-345.8849
 10
235.6885940460052
 20
-340.5099
 10
235.279294056345
 20
-337.5640000000003
 10
237.7820000000002
 20
-338.7260999999999
 10
239.1295939590782
 20
-338.8773000000001
 10
249.7514936907464
 20
-340.0682999999999
 10
260.3639999999996
 20
-341.3455000000004
 10
270.9755931545806
 20
-342.6265999999996
 10
274.7388930595116
 20
-343.0810000000001
 10
278.4918929647029
 20
-343.6196
 10
282.9250000000002
 20
-344.2097000000003
 10
279.1931929469865
 20
-340.6138000000001
 10
274.9285930547194
 20
-339.0775999999996
 10
271.1052931513041
 20
-336.9111000000003
 10
260.547593418014
 20
-330.9285
 10
249.9796936849816
 20
-324.9426999999996
 10
239.1796939578126
 20
-319.4202000000005
 10
235.080694061362
 20
-317.3240999999998
 10
234.0422940875942
 20
-314.7714999999998
 10
234.5073940758448
 20
-310.4821000000002
 10
235.7068940455429
 20
-299.4177
 10
235.5377940498147
 20
-299.4628000000002
 10
245.7346937922193
 20
-303.4871999999996
 10
260.3743934223894
 20
-309.2651999999998
 10
275.0547930515313
 20
-314.9395999999997
 10
289.7106926812921
 20
-320.6765999999998
 10
290.5330926605166
 20
-320.9984999999997
 10
291.2616926421106
 20
-321.6419999999998
 10
292.723
 20
-320.9166000000005
 10
286.0793927730265
 20
-314.6071000000002
 10
279.6099999999997
 20
-308.4169000000002
 10
273.0890931011891
 20
-302.2816999999995
 10
264.4957933182741
 20
-294.1967999999997
 10
256.0014935328581
 20
-285.9975999999997
 10
247.1718937559126
 20
-278.1779999999999
 10
243.9541938371985
 20
-275.3281999999999
 10
242.9931938614754
 20
-272.8419999999996
 10
245.1681938065303
 20
-269.0427
 10
246.6710937685639
 20
-266.4173000000001
 10
247.7207937420462
 20
-263.5322999999999
 10
249.1507937059214
 20
-260.3698000000004
 10
268.5265932164475
 20
-274.3778000000002
 10
287.6017927345674
 20
-288.1686
 10
306.6770922526848
 20
-301.9593999999997
 10
307.0649999999996
 20
-301.6853000000001
 10
307.4528922330865
 20
-301.4112000000005
 10
307.8407922232873
 20
-301.1369999999997
 10
302.1087923680898
 20
-292.0114999999996
 10
296.3767925128923
 20
-282.8859000000002
 10
290.0902926717026
 20
-272.8775999999998
 10
298.3367924633785
 20
-274.8425999999999
 10
304.2757923133468
 20
-278.9762000000001
 10
309.6656921771864
 20
-283.8365999999996
 10
325.1262917866188
 20
-297.7785000000003
 10
333.1696915834254
 20
-315.7280000000001
 10
336.8501914904482
 20
-335.8308999999999
 10
339.559391422008
 20
-350.6283999999996
 10
339.2240000000002
 20
-365.3006999999998
 10
335.1854915325021
 20
-379.9670000000006
 10
326.1037917619251
 20
-412.9483
 10
296.580192507754
 20
-417.3528999999999
 10
274.4780930661
 20
-401.6818999999996
 10
272.567
 20
-400.3268000000007
 10
270.7166931611209
 20
-398.8857000000007
 10
268.6424932135196
 20
-397.3387000000002
 97
        0
 97
        0
 92
        1
 93
        1
 72
     4
 94
        3
 73
     0
 74
     1
 95
       17
 96
       13
 40
0.0
 40
0.0
 40
0.0
 40
0.0
 40
1.0
 40
1.0
 40
1.0
 40
2.0
 40
2.0
 40
2.0
 40
3.0
 40
3.0
 40
3.0
 40
4.0
 40
4.0
 40
4.0
 40
4.0
 10
424.1389999999992
 20
-228.058
 10
440.931188861141
 20
-192.5105999999996
 10
457.7231884369394
 20
-156.9630999999999
 10
474.5152880127353
 20
-121.4156999999996
 10
474.8773880035878
 20
-121.5517
 10
475.2395879944379
 20
-121.6877000000004
 10
475.6016879852905
 20
-121.8236999999999
 10
463.8368882824943
 20
-158.1700000000001
 10
452.0718885797032
 20
-194.5164000000004
 10
439.939388886196
 20
-231.9980999999998
 10
435.5906889960534
 20
-225.5276999999996
 10
431.0926891096824
 20
-220.9654
 10
424.1389999999992
 20
-228.058
 97
        0
 97
        0
 92
        1
 93
        1
 72
     4
 94
        3
 73
     0
 74
     1
 95
       20
 96
       16
 40
0.0
 40
0.0
 40
0.0
 40
0.0
 40
1.0
 40
1.0
 40
1.0
 40
2.0
 40
2.0
 40
2.0
 40
3.0
 40
3.0
 40
3.0
 40
4.0
 40
4.0
 40
4.0
 40
5.0
 40
5.0
 40
5.0
 40
5.0
 10
310.1602921646918
 20
-231.1797999999999
 10
298.1961924669304
 20
-194.1659
 10
286.3928927651068
 20
-157.6499000000003
 10
274.5896930632807
 20
-121.134
 10
274.922393054876
 20
-121.0114999999996
 10
275.2551930464688
 20
-120.8890000000001
 10
275.5879999999997
 20
-120.7664999999997
 10
292.4473926121573
 20
-156.5389999999998
 10
309.3069999999998
 20
-192.3113999999996
 10
326.3561917555489
 20
-228.4862000000003
 10
322.3702918562412
 20
-227.9080999999996
 10
320.5424919024153
 20
-223.3184000000001
 10
317.4685919800686
 20
-224.3806999999997
 10
314.8519999999999
 20
-225.2849999999999
 10
313.0008920929322
 20
-228.4044999999996
 10
310.1602921646918
 20
-231.1797999999999
 97
        0
 97
        0
 92
        1
 93
        1
 72
     4
 94
        3
 73
     0
 74
     1
 95
       23
 96
       19
 40
0.0
 40
0.0
 40
0.0
 40
0.0
 40
1.0
 40
1.0
 40
1.0
 40
2.0
 40
2.0
 40
2.0
 40
3.0
 40
3.0
 40
3.0
 40
4.0
 40
4.0
 40
4.0
 40
5.0
 40
5.0
 40
5.0
 40
6.0
 40
6.0
 40
6.0
 40
6.0
 10
345.9185912613611
 20
-191.0829000000003
 10
344.08229130775
 20
-161.0088999999998
 10
342.2775913533405
 20
-131.4524000000001
 10
340.4728913989311
 20
-101.8959000000004
 10
340.692591393381
 20
-101.8554000000004
 10
340.9121913878334
 20
-101.8149000000003
 10
341.1318913822834
 20
-101.7744000000002
 10
343.3196913270149
 20
-112.8257000000003
 10
345.5506912706551
 20
-123.8688000000002
 10
347.6840000000002
 20
-134.9306999999999
 10
350.1121911554219
 20
-147.5223999999998
 10
352.2145911023108
 20
-160.1828999999998
 10
354.9440000000004
 20
-172.7078000000001
 10
356.1153910037683
 20
-178.0829000000003
 10
355.9172910087727
 20
-182.4612999999999
 10
351.3760911234931
 20
-186.1043
 10
349.6260000000002
 20
-187.5082000000002
 10
348.5879999999997
 20
-189.7542000000003
 10
345.9185912613611
 20
-191.0829000000003
 97
        0
 97
        0
 92
        1
 93
        1
 72
     4
 94
        3
 73
     0
 74
     1
 95
       17
 96
       13
 40
0.0
 40
0.0
 40
0.0
 40
0.0
 40
1.0
 40
1.0
 40
1.0
 40
2.0
 40
2.0
 40
2.0
 40
3.0
 40
3.0
 40
3.0
 40
4.0
 40
4.0
 40
4.0
 40
4.0
 10
395.5292900080894
 20
-173.2020000000002
 10
399.9865898954886
 20
-149.9229999999998
 10
404.4260897833374
 20
-126.6405999999997
 10
408.8875896706304
 20
-103.3622999999998
 10
408.9738896684503
 20
-102.9114
 10
409.2435896616371
 20
-102.4957000000004
 10
410.0857896403613
 20
-100.5195000000003
 10
408.1301896897639
 20
-131.6361999999999
 10
406.2770897365772
 20
-161.1198999999997
 10
404.4202897834839
 20
-190.6639999999998
 10
397.0095899706939
 20
-187.0483999999997
 10
394.0220900461645
 20
-181.0736999999999
 10
395.5292900080894
 20
-173.2020000000002
 97
        0
 97
        0
 92
        1
 93
        1
 72
     4
 94
        3
 73
     0
 74
     1
 95
       26
 96
       22
 40
0.0
 40
0.0
 40
0.0
 40
0.0
 40
1.0
 40
1.0
 40
1.0
 40
2.0
 40
2.0
 40
2.0
 40
3.0
 40
3.0
 40
3.0
 40
4.0
 40
4.0
 40
4.0
 40
5.0
 40
5.0
 40
5.0
 40
6.0
 40
6.0
 40
6.0
 40
7.0
 40
7.0
 40
7.0
 40
7.0
 10
475.1284879972445
 20
-225.1976000000004
 10
476.6175879596267
 20
-223.3465999999999
 10
477.8457879285997
 20
-222.9724999999999
 10
479.1548878955291
 20
-225.2726000000002
 10
479.3322878910476
 20
-225.5843999999997
 10
479.5838878846916
 20
-225.8555999999999
 10
479.8124878789167
 20
-226.1364000000003
 10
485.4255877371179
 20
-233.0316999999995
 10
485.4258877371103
 20
-233.0316000000003
 10
480.6642878573984
 20
-240.6171999999997
 10
476.3438879665409
 20
-247.4997999999996
 10
472.0232880756885
 20
-254.3823000000002
 10
467.5116881896611
 20
-261.5693000000001
 10
466.716388209752
 20
-261.0308999999997
 10
466.3768882183285
 20
-260.8707000000004
 10
466.1260000000002
 20
-260.6211999999996
 10
454.8146885104143
 20
-249.3729000000003
 10
454.8261885101238
 20
-249.3809000000001
 10
465.0652882514623
 20
-237.3157000000001
 10
468.4626881656368
 20
-233.3125
 10
471.8376880803771
 20
-229.2883000000002
 10
475.1284879972445
 20
-225.1976000000004
 97
        0
 97
        0
 92
        1
 93
        1
 72
     4
 94
        3
 73
     0
 74
     1
 95
       23
 96
       19
 40
0.0
 40
0.0
 40
0.0
 40
0.0
 40
1.0
 40
1.0
 40
1.0
 40
2.0
 40
2.0
 40
2.0
 40
3.0
 40
3.0
 40
3.0
 40
4.0
 40
4.0
 40
4.0
 40
5.0
 40
5.0
 40
5.0
 40
6.0
 40
6.0
 40
6.0
 40
6.0
 10
269.7003931867948
 20
-226.9669000000004
 10
271.5127931410098
 20
-223.1013000000003
 10
273.6230930876991
 20
-222.8308999999999
 10
276.4883930153155
 20
-226.5753999999997
 10
281.6496928849301
 20
-233.3200999999999
 10
287.2363927437982
 20
-239.7417999999998
 10
292.719192605291
 20
-246.2361000000001
 10
294.0208925724073
 20
-247.7779
 10
294.7931925528974
 20
-248.9609
 10
293.0288925974673
 20
-250.7858999999999
 10
289.6702926823127
 20
-254.2600000000002
 10
286.5158927619996
 20
-257.9314999999997
 10
283.0460000000003
 20
-261.7767000000003
 10
277.3419999999996
 20
-252.7134999999998
 10
272.0245931280806
 20
-244.1149999999998
 10
266.5454932664943
 20
-235.6207000000004
 10
263.7031933382968
 20
-231.2143999999998
 10
268.4107932193729
 20
-229.7174999999997
 10
269.7003931867948
 20
-226.9669000000004
 97
        0
 97
        0
 92
        1
 93
        1
 72
     4
 94
        3
 73
     0
 74
     1
 95
       20
 96
       16
 40
0.0
 40
0.0
 40
0.0
 40
0.0
 40
1.0
 40
1.0
 40
1.0
 40
2.0
 40
2.0
 40
2.0
 40
3.0
 40
3.0
 40
3.0
 40
4.0
 40
4.0
 40
4.0
 40
5.0
 40
5.0
 40
5.0
 40
5.0
 10
493.0365875448479
 20
-203.6346999999996
 10
506.8515871958516
 20
-187.0955000000004
 10
520.5529999999999
 20
-170.4614000000001
 10
534.2926865026311
 20
-153.8591999999999
 10
534.5762864954668
 20
-154.1424999999999
 10
534.8598864883024
 20
-154.4256999999998
 10
535.1435864811356
 20
-154.7089999999998
 10
523.798286767742
 20
-172.6171000000004
 10
512.3963870557782
 20
-190.4897000000001
 10
501.1482873399291
 20
-208.4587000000001
 10
498.399787409362
 20
-212.8491999999997
 10
496.6481874536112
 20
-208.8046999999997
 10
494.6948875029557
 20
-207.8981000000003
 10
493.1757875413314
 20
-207.1931000000004
 10
490.6941876040219
 20
-206.4390000000003
 10
493.0365875448479
 20
-203.6346999999996
 97
        0
 97
        0
 92
        1
 93
        1
 72
     4
 94
        3
 73
     0
 74
     1
 95
       23
 96
       19
 40
0.0
 40
0.0
 40
0.0
 40
0.0
 40
1.0
 40
1.0
 40
1.0
 40
2.0
 40
2.0
 40
2.0
 40
3.0
 40
3.0
 40
3.0
 40
4.0
 40
4.0
 40
4.0
 40
5.0
 40
5.0
 40
5.0
 40
6.0
 40
6.0
 40
6.0
 40
6.0
 10
249.4309999999996
 20
-208.6517000000003
 10
238.2773939806066
 20
-190.9368000000004
 10
227.0632942638986
 20
-173.2599
 10
215.8661945467611
 20
-155.5724
 10
216.1940945384777
 20
-155.2712000000001
 10
216.5219999999999
 20
-154.9701000000005
 10
216.8498945219108
 20
-154.6688999999997
 10
228.7361942216376
 20
-169.0208000000002
 10
240.6223939213669
 20
-183.3726999999999
 10
252.509
 20
-197.7244000000001
 10
253.3175936006592
 20
-198.7007000000003
 10
254.1189999999997
 20
-199.6832000000004
 10
254.9405935596587
 20
-200.6486000000004
 10
259.3648934478915
 20
-205.8464000000004
 10
259.2520000000004
 20
-205.9796999999999
 10
253.2793936016242
 20
-209.5028000000002
 10
251.385893649458
 20
-210.6197000000002
 10
250.544593670711
 20
-210.4202999999998
 10
249.4309999999996
 20
-208.6517000000003
 97
        0
 97
        0
 92
        1
 93
        1
 72
     4
 94
        3
 73
     0
 74
     1
 95
       23
 96
       19
 40
0.0
 40
0.0
 40
0.0
 40
0.0
 40
1.0
 40
1.0
 40
1.0
 40
2.0
 40
2.0
 40
2.0
 40
3.0
 40
3.0
 40
3.0
 40
4.0
 40
4.0
 40
4.0
 40
5.0
 40
5.0
 40
5.0
 40
6.0
 40
6.0
 40
6.0
 40
6.0
 10
211.3190000000004
 20
-244.0048999999999
 10
196.0518950473124
 20
-229.9838
 10
181.0822954254763
 20
-215.6388999999999
 10
166.0053958063509
 20
-201.4106000000002
 10
166.2551958000404
 20
-201.1071000000002
 10
166.5050957937274
 20
-200.8035
 10
166.7548957874169
 20
-200.4998999999998
 10
175.0330000000004
 20
-206.5128000000004
 10
183.3085953692353
 20
-212.5294000000004
 10
191.590095160027
 20
-218.5375999999997
 10
199.95229494878
 20
-224.6045000000004
 10
208.3090947376695
 20
-230.6790000000001
 10
216.6953945258138
 20
-236.7123000000001
 10
218.3882944830475
 20
-237.9301999999998
 10
219.6760944505149
 20
-239.2853999999998
 10
217.2831945109647
 20
-240.7622000000001
 10
215.3388945600818
 20
-241.9621999999999
 10
214.7063945760601
 20
-247.1157999999996
 10
211.3190000000004
 20
-244.0048999999999
 97
        0
 97
        0
 92
        1
 93
        1
 72
     4
 94
        3
 73
     0
 74
     1
 95
       20
 96
       16
 40
0.0
 40
0.0
 40
0.0
 40
0.0
 40
1.0
 40
1.0
 40
1.0
 40
2.0
 40
2.0
 40
2.0
 40
3.0
 40
3.0
 40
3.0
 40
4.0
 40
4.0
 40
4.0
 40
5.0
 40
5.0
 40
5.0
 40
5.0
 10
533.9497865112935
 20
-236.5953
 10
550.9752860811932
 20
-224.3136000000004
 10
567.9715856518305
 20
-211.9916000000003
 10
584.9763852222532
 20
-199.6813000000002
 10
585.1847852169885
 20
-199.9269000000004
 10
585.3932852117214
 20
-200.1724999999997
 10
585.6016852064568
 20
-200.4182000000001
 10
570.2697855937731
 20
-214.8267999999998
 10
554.9243859814305
 20
-229.2214000000004
 10
539.614886368181
 20
-243.6539000000002
 10
535.5723864703032
 20
-247.4647999999997
 10
535.0247864841367
 20
-242.3172999999997
 10
533.1212865322232
 20
-241.0601999999999
 10
530.5212865979047
 20
-239.3431
 10
532.1254865573792
 20
-237.9114
 10
533.9497865112935
 20
-236.5953
 97
        0
 97
        0
 92
        1
 93
        1
 72
     4
 94
        3
 73
     0
 74
     1
 95
       20
 96
       16
 40
0.0
 40
0.0
 40
0.0
 40
0.0
 40
1.0
 40
1.0
 40
1.0
 40
2.0
 40
2.0
 40
2.0
 40
3.0
 40
3.0
 40
3.0
 40
4.0
 40
4.0
 40
4.0
 40
5.0
 40
5.0
 40
5.0
 40
5.0
 10
564.6937857346347
 20
-279.7681000000002
 10
583.8102852517113
 20
-272.3441999999995
 10
602.8590000000004
 20
-264.7461000000003
 10
621.9304842887141
 20
-257.2066999999997
 10
622.0810842849096
 20
-257.4943000000003
 10
622.2315842811076
 20
-257.7819
 10
622.3819999999996
 20
-258.0694999999996
 10
604.5144847286792
 20
-267.8987999999999
 10
586.6160851808309
 20
-277.6727000000001
 10
568.8022856308453
 20
-287.5982000000004
 10
564.5875857373176
 20
-289.9465
 10
565.0702857251235
 20
-285.8209999999999
 10
563.8797857551981
 20
-284.2719999999999
 10
562.7537857836433
 20
-282.8068999999996
 10
561.4210000000003
 20
-281.0391
 10
564.6937857346347
 20
-279.7681000000002
 97
        0
 97
        0
 92
        1
 93
        1
 72
     4
 94
        3
 73
     0
 74
     1
 95
       23
 96
       19
 40
0.0
 40
0.0
 40
0.0
 40
0.0
 40
1.0
 40
1.0
 40
1.0
 40
2.0
 40
2.0
 40
2.0
 40
3.0
 40
3.0
 40
3.0
 40
4.0
 40
4.0
 40
4.0
 40
5.0
 40
5.0
 40
5.0
 40
6.0
 40
6.0
 40
6.0
 40
6.0
 10
181.8188954068683
 20
-287.6313
 10
164.5391958433902
 20
-278.2372999999998
 10
147.3740962770171
 20
-268.6328999999996
 10
130.1673967116949
 20
-259.1046999999999
 10
130.3822967062661
 20
-258.7523000000001
 10
130.5972967008347
 20
-258.3998000000001
 10
130.8122966954033
 20
-258.0474000000004
 10
141.5130964250784
 20
-262.2335999999996
 10
152.2207961545791
 20
-266.4025000000001
 10
162.9125958844816
 20
-270.6121000000003
 10
170.3006956978425
 20
-273.5209000000004
 10
177.6455955122947
 20
-276.5407999999998
 10
185.055095325115
 20
-279.3937999999998
 10
187.4404952648547
 20
-280.3122999999996
 10
188.505595237948
 20
-281.5951999999997
 10
186.5617952870525
 20
-283.6585999999998
 10
185.1516953226746
 20
-285.1554999999998
 10
185.7457953076664
 20
-289.7662
 10
181.8188954068683
 20
-287.6313
 97
        0
 97
        0
 92
        1
 93
        1
 72
     4
 94
        3
 73
     0
 74
     1
 95
       20
 96
       16
 40
0.0
 40
0.0
 40
0.0
 40
0.0
 40
1.0
 40
1.0
 40
1.0
 40
2.0
 40
2.0
 40
2.0
 40
3.0
 40
3.0
 40
3.0
 40
4.0
 40
4.0
 40
4.0
 40
5.0
 40
5.0
 40
5.0
 40
5.0
 10
585.6546852051179
 20
-329.4579000000003
 10
604.3545847327186
 20
-327.1797999999999
 10
623.0534842603447
 20
-324.8928999999998
 10
641.7547837879101
 20
-322.6266999999998
 10
642.0894837794549
 20
-322.5861000000004
 10
642.4510000000009
 20
-322.7651999999998
 10
643.9110000000001
 20
-323.0856999999996
 10
624.4500842250636
 20
-328.1360000000004
 10
606.0882846889217
 20
-332.8517000000002
 10
587.7606851519158
 20
-337.6970000000001
 10
583.8881852497434
 20
-338.7208000000001
 10
583.9427852483641
 20
-336.1953000000003
 10
583.0728852703396
 20
-333.7035999999998
 10
582.0546852960615
 20
-330.7870999999996
 10
582.9740852728355
 20
-329.7844000000005
 10
585.6546852051179
 20
-329.4579000000003
 97
        0
 97
        0
 92
        1
 93
        1
 72
     4
 94
        3
 73
     0
 74
     1
 95
       23
 96
       19
 40
0.0
 40
0.0
 40
0.0
 40
0.0
 40
1.0
 40
1.0
 40
1.0
 40
2.0
 40
2.0
 40
2.0
 40
3.0
 40
3.0
 40
3.0
 40
4.0
 40
4.0
 40
4.0
 40
5.0
 40
5.0
 40
5.0
 40
6.0
 40
6.0
 40
6.0
 40
6.0
 10
162.5741958930303
 20
-337.4953999999998
 10
144.4694963503935
 20
-332.7165999999997
 10
126.3322968085777
 20
-328.0609000000004
 10
108.2071972664562
 20
-323.3594000000003
 10
108.2813972645818
 20
-323.0330000000004
 10
108.3556972627048
 20
-322.7065000000002
 10
108.4298972608303
 20
-322.3801000000003
 10
118.8198969983569
 20
-323.6145999999999
 10
129.2130967358025
 20
-324.8229000000001
 10
139.5988964734352
 20
-326.0919999999996
 10
147.6779999999999
 20
-327.0792000000001
 10
155.7491960654443
 20
-328.1328000000003
 10
163.8211958615284
 20
-329.1778999999997
 10
165.9071958088316
 20
-329.4479000000001
 10
168.608695740586
 20
-329.1342000000004
 10
167.170495776918
 20
-332.7993999999999
 10
166.2849999999999
 20
-335.0559999999996
 10
167.2173957757332
 20
-338.7209999999995
 10
162.5741958930303
 20
-337.4953999999998
 97
        0
 97
        0
 92
        1
 93
        1
 72
     4
 94
        3
 73
     0
 74
     1
 95
       20
 96
       16
 40
0.0
 40
0.0
 40
0.0
 40
0.0
 40
1.0
 40
1.0
 40
1.0
 40
2.0
 40
2.0
 40
2.0
 40
3.0
 40
3.0
 40
3.0
 40
4.0
 40
4.0
 40
4.0
 40
5.0
 40
5.0
 40
5.0
 40
5.0
 10
101.2430000000004
 20
-391.2662
 10
101.2257974428212
 20
-391.0280000000002
 10
101.2085974432557
 20
-390.7896999999994
 10
101.1913974436902
 20
-390.5514000000003
 10
118.7728969995442
 20
-388.2764000000006
 10
136.3497965555143
 20
-385.9650999999994
 10
153.9383961111889
 20
-383.7459999999992
 10
160.0783959560795
 20
-382.9712999999992
 10
160.7673959386739
 20
-383.7078000000001
 10
160.3810000000003
 20
-388.6461999999992
 10
160.2035959529167
 20
-390.9140000000007
 10
159.2091959780373
 20
-391.2903000000006
 10
157.3056960261238
 20
-391.2867999999999
 10
138.6181964982097
 20
-391.2527000000009
 10
119.9305969702982
 20
-391.2662
 10
101.2430000000004
 20
-391.2662
 97
        0
 97
        0
 92
        1
 93
        1
 72
     4
 94
        3
 73
     0
 74
     1
 95
       23
 96
       19
 40
0.0
 40
0.0
 40
0.0
 40
0.0
 40
1.0
 40
1.0
 40
1.0
 40
2.0
 40
2.0
 40
2.0
 40
3.0
 40
3.0
 40
3.0
 40
4.0
 40
4.0
 40
4.0
 40
5.0
 40
5.0
 40
5.0
 40
6.0
 40
6.0
 40
6.0
 40
6.0
 10
631.5050840468393
 20
-388.4230000000007
 10
636.6818839160624
 20
-389.0858000000007
 10
641.85058378549
 20
-389.8120999999992
 10
647.0230836548217
 20
-390.5095000000001
 10
646.979683655918
 20
-390.7996000000003
 10
646.9364836570094
 20
-391.0897000000004
 10
646.8931836581032
 20
-391.3798999999999
 10
628.9470000000001
 20
-391.3798999999999
 10
611.0
 20
-391.2952999999998
 10
593.055085018168
 20
-391.4462000000003
 10
589.1341851172183
 20
-391.4791000000005
 10
590.0197850948462
 20
-389.0648999999994
 10
589.7627851013385
 20
-386.8097999999991
 10
589.3675851113221
 20
-383.3415999999997
 10
591.4654850583247
 20
-383.3629000000001
 10
593.7946849994842
 20
-383.6537000000008
 10
606.3672846818736
 20
-385.2232999999997
 10
618.9373843643261
 20
-386.8140999999996
 10
631.5050840468393
 20
-388.4230000000007
 97
        0
 97
        0
 92
        1
 93
        1
 72
     4
 94
        3
 73
     0
 74
     1
 95
       20
 96
       16
 40
0.0
 40
0.0
 40
0.0
 40
0.0
 40
1.0
 40
1.0
 40
1.0
 40
2.0
 40
2.0
 40
2.0
 40
3.0
 40
3.0
 40
3.0
 40
4.0
 40
4.0
 40
4.0
 40
5.0
 40
5.0
 40
5.0
 40
5.0
 10
164.8877958345838
 20
-445.9554000000007
 10
148.2081962559459
 20
-449.9379000000008
 10
131.6363966745848
 20
-454.3721000000005
 10
115.025197094219
 20
-458.6409999999996
 10
114.8848970977633
 20
-458.3842999999997
 10
114.7446971013051
 20
-458.1275999999998
 10
114.6043971048493
 20
-457.8708000000006
 10
130.7278966975355
 20
-451.4742999999999
 10
146.8623962899437
 20
-445.1052999999993
 10
162.9633958831982
 20
-438.6525000000001
 10
165.4863958194619
 20
-437.6412999999993
 10
166.571295792055
 20
-438.2278000000006
 10
167.057795779765
 20
-440.9210000000003
 10
167.4746957692332
 20
-443.2281999999996
 10
168.8535957343993
 20
-445.0085999999992
 10
164.8877958345838
 20
-445.9554000000007
 97
        0
 97
        0
 92
        1
 93
        1
 72
     4
 94
        3
 73
     0
 74
     1
 95
       20
 96
       16
 40
0.0
 40
0.0
 40
0.0
 40
0.0
 40
1.0
 40
1.0
 40
1.0
 40
2.0
 40
2.0
 40
2.0
 40
3.0
 40
3.0
 40
3.0
 40
4.0
 40
4.0
 40
4.0
 40
5.0
 40
5.0
 40
5.0
 40
5.0
 10
586.8485851749574
 20
-438.7459999999992
 10
602.7508847732315
 20
-445.1126000000004
 10
618.6883843706164
 20
-451.3911000000007
 10
634.6146839682842
 20
-457.6974000000009
 10
634.5699999999997
 20
-458.0221999999994
 10
634.5251839705452
 20
-458.3469000000005
 10
634.4804839716744
 20
-458.6715999999997
 10
617.9175843900885
 20
-454.4099999999999
 10
601.3844848077497
 20
-450.0267000000003
 10
584.7716852274243
 20
-445.9698000000008
 10
580.441185336822
 20
-444.9123999999993
 10
582.9913852723985
 20
-442.6385000000009
 10
583.1585852681746
 20
-440.6785
 10
583.378585262617
 20
-438.0966000000008
 10
584.6215852312162
 20
-437.8544000000002
 10
586.8485851749574
 20
-438.7459999999992
 97
        0
 97
        0
 92
        1
 93
        1
 72
     4
 94
        3
 73
     0
 74
     1
 95
       20
 96
       16
 40
0.0
 40
0.0
 40
0.0
 40
0.0
 40
1.0
 40
1.0
 40
1.0
 40
2.0
 40
2.0
 40
2.0
 40
3.0
 40
3.0
 40
3.0
 40
4.0
 40
4.0
 40
4.0
 40
5.0
 40
5.0
 40
5.0
 40
5.0
 10
187.475595263968
 20
-492.1188999999995
 10
188.1199999999999
 20
-493.6430999999993
 10
190.7566951810804
 20
-495.2572
 10
187.6141952604667
 20
-496.9703000000009
 10
173.6987956119992
 20
-504.5562000000009
 10
159.7927959632943
 20
-512.1594000000005
 10
145.8832963146779
 20
-519.7563000000009
 10
145.711096319028
 20
-519.4745000000003
 10
145.5387963233807
 20
-519.1928000000007
 10
145.3664963277333
 20
-518.9110999999994
 10
158.1868960038628
 20
-509.5421000000006
 10
171.0143956798129
 20
-500.1826999999994
 10
183.8203953563061
 20
-490.7939999999999
 10
185.7873953066155
 20
-489.3518999999997
 10
186.8178952805829
 20
-490.5627000000004
 10
187.475595263968
 20
-492.1188999999995
 97
        0
 97
        0
 92
        1
 93
        1
 72
     4
 94
        3
 73
     0
 74
     1
 95
       23
 96
       19
 40
0.0
 40
0.0
 40
0.0
 40
0.0
 40
1.0
 40
1.0
 40
1.0
 40
2.0
 40
2.0
 40
2.0
 40
3.0
 40
3.0
 40
3.0
 40
4.0
 40
4.0
 40
4.0
 40
5.0
 40
5.0
 40
5.0
 40
6.0
 40
6.0
 40
6.0
 40
6.0
 10
566.3972856916007
 20
-490.9974000000002
 10
579.1463853695313
 20
-500.3871999999992
 10
591.9667850456608
 20
-509.6803999999993
 10
604.7627847224066
 20
-519.0066999999999
 10
604.587884726825
 20
-519.2919999999995
 10
604.4130000000005
 20
-519.5773000000008
 10
604.2381847356592
 20
-519.8626999999997
 10
596.2373849377764
 20
-515.4940999999999
 10
588.2307851400401
 20
-511.1358999999993
 10
580.2375853419653
 20
-506.7533000000003
 10
574.3733854901075
 20
-503.5380000000005
 10
568.5914856361705
 20
-500.1646999999994
 10
562.6461857863615
 20
-497.1082000000006
 10
559.4614858668137
 20
-495.4709000000003
 10
561.6650858111461
 20
-493.9613000000008
 10
562.3968857926593
 20
-492.4002999999993
 10
563.2187857718964
 20
-490.6471999999994
 10
564.1021857495798
 20
-489.3071
 10
566.3972856916007
 20
-490.9974000000002
 97
        0
 97
        0
 92
        1
 93
        1
 72
     4
 94
        3
 73
     0
 74
     1
 95
       23
 96
       19
 40
0.0
 40
0.0
 40
0.0
 40
0.0
 40
1.0
 40
1.0
 40
1.0
 40
2.0
 40
2.0
 40
2.0
 40
3.0
 40
3.0
 40
3.0
 40
4.0
 40
4.0
 40
4.0
 40
5.0
 40
5.0
 40
5.0
 40
6.0
 40
6.0
 40
6.0
 40
6.0
 10
220.9847944174544
 20
-536.8821000000007
 10
222.6973943741905
 20
-538.8052000000007
 10
224.0225943407131
 20
-539.9534999999996
 10
221.3421944084257
 20
-542.3868000000002
 10
211.0039999999999
 20
-551.7718000000004
 10
200.8944949249781
 20
-561.4086000000007
 10
190.6996951825204
 20
-570.9516999999996
 10
190.3707951908291
 20
-570.6908000000003
 10
190.0418951991378
 20
-570.4298999999992
 10
189.7129999999997
 20
-570.1690999999992
 10
197.2604950167806
 20
-561.0020000000004
 10
204.808
 20
-551.8348000000005
 10
212.3554946354488
 20
-542.6677
 10
213.7389999999996
 20
-540.9873000000007
 10
215.1890945638661
 20
-539.3565999999992
 10
216.486494531091
 20
-537.6121999999996
 10
217.7961944980052
 20
-535.8513999999996
 10
218.8267944719701
 20
-534.4588000000003
 10
220.9847944174544
 20
-536.8821000000007
 97
        0
 97
        0
 92
        1
 93
        1
 72
     4
 94
        3
 73
     0
 74
     1
 95
       20
 96
       16
 40
0.0
 40
0.0
 40
0.0
 40
0.0
 40
1.0
 40
1.0
 40
1.0
 40
2.0
 40
2.0
 40
2.0
 40
3.0
 40
3.0
 40
3.0
 40
4.0
 40
4.0
 40
4.0
 40
5.0
 40
5.0
 40
5.0
 40
5.0
 10
532.8750865384427
 20
-536.7852000000003
 10
541.9597863089439
 20
-547.9864999999991
 10
551.155486076641
 20
-559.0977999999996
 10
560.3130858453005
 20
-570.2399000000005
 10
559.9954858533238
 20
-570.5043000000005
 10
559.6776858613521
 20
-570.7685999999994
 10
559.3600858693753
 20
-571.0329999999994
 10
549.0592861295954
 20
-561.3732
 10
538.8510000000006
 20
-551.6114999999991
 10
528.3963866515842
 20
-542.1208999999999
 10
525.5918867224318
 20
-539.5750000000007
 10
527.752386667853
 20
-538.5701000000008
 10
529.0922866340043
 20
-537.0547999999999
 10
530.2513866047229
 20
-535.7438000000002
 10
531.2330000000002
 20
-534.7605999999996
 10
532.8750865384427
 20
-536.7852000000003
 97
        0
 97
        0
 92
        1
 93
        1
 72
     4
 94
        3
 73
     0
 74
     1
 95
       20
 96
       16
 40
0.0
 40
0.0
 40
0.0
 40
0.0
 40
1.0
 40
1.0
 40
1.0
 40
2.0
 40
2.0
 40
2.0
 40
3.0
 40
3.0
 40
3.0
 40
4.0
 40
4.0
 40
4.0
 40
5.0
 40
5.0
 40
5.0
 40
5.0
 10
488.5826876573628
 20
-573.6998000000003
 10
494.5827875057876
 20
-586.5840000000007
 10
500.6668873520903
 20
-599.4290999999994
 10
506.7238871990776
 20
-612.2867000000006
 10
506.4826872051708
 20
-612.5143000000007
 10
506.241487211264
 20
-612.7419000000009
 10
506.0003872173547
 20
-612.9694999999992
 10
498.3411874108424
 20
-600.9506000000001
 10
490.7451876027335
 20
-588.8904999999995
 10
482.9756877990076
 20
-576.9434000000001
 10
481.1748878444996
 20
-574.1743000000006
 10
482.687887806278
 20
-573.3320000000003
 10
484.698487755486
 20
-572.0383000000002
 10
487.0944876949579
 20
-570.4968000000008
 10
487.7060876795076
 20
-571.8176000000003
 10
488.5826876573628
 20
-573.6998000000003
 97
        0
 97
        0
 92
        1
 93
        1
 72
     4
 94
        3
 73
     0
 74
     1
 95
       20
 96
       16
 40
0.0
 40
0.0
 40
0.0
 40
0.0
 40
1.0
 40
1.0
 40
1.0
 40
2.0
 40
2.0
 40
2.0
 40
3.0
 40
3.0
 40
3.0
 40
4.0
 40
4.0
 40
4.0
 40
5.0
 40
5.0
 40
5.0
 40
5.0
 10
267.1861932503089
 20
-576.7101000000002
 10
259.8159999999998
 20
-588.1188000000002
 10
252.5506936200327
 20
-599.5951999999997
 10
245.249593804474
 20
-611.0485000000008
 10
244.8811938137806
 20
-610.9017000000003
 10
244.5127938230871
 20
-610.7548999999999
 10
244.1443938323937
 20
-610.6082000000006
 10
250.0160936840621
 20
-598.0529000000006
 10
255.9171935349877
 20
-585.5113000000001
 10
261.7366933879748
 20
-572.9318999999996
 10
263.0380000000005
 20
-570.1190000000006
 10
264.5384933171954
 20
-571.7576000000008
 10
266.0824932781907
 20
-572.4735999999994
 10
268.1800932252008
 20
-573.4462999999996
 10
268.5041932170134
 20
-574.6697999999997
 10
267.1861932503089
 20
-576.7101000000002
 97
        0
 97
        0
 92
        1
 93
        1
 72
     4
 94
        3
 73
     0
 74
     1
 95
       20
 96
       16
 40
0.0
 40
0.0
 40
0.0
 40
0.0
 40
1.0
 40
1.0
 40
1.0
 40
2.0
 40
2.0
 40
2.0
 40
3.0
 40
3.0
 40
3.0
 40
4.0
 40
4.0
 40
4.0
 40
5.0
 40
5.0
 40
5.0
 40
5.0
 10
435.2987890034274
 20
-595.9961999999996
 10
437.814188939883
 20
-609.3683000000001
 10
440.3883888748533
 20
-622.7294000000002
 10
442.9416888103515
 20
-636.0943000000007
 10
442.5628888199208
 20
-636.1818000000003
 10
442.1839999999993
 20
-636.2692000000006
 10
441.8050888390644
 20
-636.3565999999992
 10
437.698088942816
 20
-623.6834999999992
 10
433.6472890451478
 20
-610.9915999999994
 10
429.4359999999997
 20
-598.3531000000003
 10
428.606889172479
 20
-595.8649999999998
 10
429.5432891488235
 20
-595.1888999999992
 10
431.6992890943584
 20
-594.7204000000002
 10
433.2826890543583
 20
-594.3762999999999
 10
434.789189016301
 20
-593.2875000000004
 10
435.2987890034274
 20
-595.9961999999996
 97
        0
 97
        0
 92
        1
 93
        1
 72
     4
 94
        3
 73
     0
 74
     1
 95
       20
 96
       16
 40
0.0
 40
0.0
 40
0.0
 40
0.0
 40
1.0
 40
1.0
 40
1.0
 40
2.0
 40
2.0
 40
2.0
 40
3.0
 40
3.0
 40
3.0
 40
4.0
 40
4.0
 40
4.0
 40
5.0
 40
5.0
 40
5.0
 40
5.0
 10
378.1991904458846
 20
-606.4927000000007
 10
377.3928904662534
 20
-618.1957000000002
 10
376.6728904844422
 20
-629.9046999999991
 10
375.8826905044043
 20
-641.6088
 10
375.8147905061196
 20
-642.6144000000004
 10
376.0683904997131
 20
-643.8328000000001
 10
374.4212905413224
 20
-644.6622000000007
 10
373.558590563116
 20
-631.7239000000009
 10
372.7247905841796
 20
-619.1244999999999
 10
371.8726906057054
 20
-606.5260999999991
 10
371.7160000000003
 20
-604.2077000000008
 10
371.6303906118264
 20
-602.3580000000002
 10
375.0236905261045
 20
-602.3832999999995
 10
378.3209999999999
 20
-602.4079999999994
 10
378.3661904416658
 20
-604.0696000000007
 10
378.1991904458846
 20
-606.4927000000007
 97
        0
 97
        0
 92
        1
 93
        1
 72
     4
 94
        3
 73
     0
 74
     1
 95
       20
 96
       16
 40
0.0
 40
0.0
 40
0.0
 40
0.0
 40
1.0
 40
1.0
 40
1.0
 40
2.0
 40
2.0
 40
2.0
 40
3.0
 40
3.0
 40
3.0
 40
4.0
 40
4.0
 40
4.0
 40
5.0
 40
5.0
 40
5.0
 40
5.0
 10
320.6109999999999
 20
-598.2921000000006
 10
316.4719999999998
 20
-610.7178000000004
 10
312.4815921060508
 20
-623.1931000000004
 10
308.4364922082386
 20
-635.6499999999996
 10
308.0423922181944
 20
-635.5357999999997
 10
307.6480922281553
 20
-635.4215999999997
 10
307.2539999999999
 20
-635.3073999999997
 10
309.6941921764665
 20
-622.4164000000001
 10
312.1195921151957
 20
-609.5226000000002
 10
314.5932920527048
 20
-596.6381000000001
 10
314.9053920448205
 20
-595.0121999999992
 10
315.2564920359509
 20
-593.4236000000001
 10
317.7467919730407
 20
-594.4858000000004
 10
319.5827919266594
 20
-595.2690000000002
 10
321.6207918751752
 20
-595.2607000000007
 10
320.6109999999999
 20
-598.2921000000006
 97
        0
 97
        0
 75
     2
 76
     1
 98
        0
  0
ENDSEC
  0
SECTION
  2
OBJECTS
  0
DICTIONARY
  5
C
330
0
100
AcDbDictionary
281
     1
  3
ACAD_GROUP
350
D
  3
ACAD_LAYOUT
350
1A
  3
ACAD_MATERIAL
350
3B
  3
ACAD_MLEADERSTYLE
350
67
  3
ACAD_MLINESTYLE
350
17
  3
ACAD_PLOTSETTINGS
350
19
  3
ACAD_PLOTSTYLENAME
350
E
  3
ACAD_TABLESTYLE
350
66
  3
ACAD_VISUALSTYLE
350
2A
  0
SUN
  5
3F
330
29
100
AcDbSun
 90
        1
290
     0
 63
     7
421
 16777215
 40
1.0
291
     1
 91
  2455826
 92
 54000000
292
     0
 70
     2
 71
   256
280
     1
  0
DICTIONARY
  5
D
102
{ACAD_REACTORS
330
C
102
}
330
C
100
AcDbDictionary
281
     1
  0
DICTIONARY
  5
1A
102
{ACAD_REACTORS
330
C
102
}
330
C
100
AcDbDictionary
281
     1
  3
Layout1
350
1E
  3
Layout2
350
26
  3
Model
350
22
  0
DICTIONARY
  5
3B
102
{ACAD_REACTORS
330
C
102
}
330
C
100
AcDbDictionary
281
     1
  3
ByBlock
350
3D
  3
ByLayer
350
3C
  3
Global
350
3E
  0
DICTIONARY
  5
67
102
{ACAD_REACTORS
330
C
102
}
330
C
100
AcDbDictionary
281
     1
  0
DICTIONARY
  5
17
102
{ACAD_REACTORS
330
C
102
}
330
C
100
AcDbDictionary
281
     1
  3
Standard
350
18
  0
DICTIONARY
  5
19
102
{ACAD_REACTORS
330
C
102
}
330
C
100
AcDbDictionary
281
     1
  0
ACDBDICTIONARYWDFLT
  5
E
102
{ACAD_REACTORS
330
C
102
}
330
C
100
AcDbDictionary
281
     1
  3
Normal
350
F
100
AcDbDictionaryWithDefault
340
F
  0
DICTIONARY
  5
66
102
{ACAD_REACTORS
330
C
102
}
330
C
100
AcDbDictionary
281
     1
  0
DICTIONARY
  5
2A
102
{ACAD_REACTORS
330
C
102
}
330
C
100
AcDbDictionary
281
     1
  3
2dWireframe
350
2F
  3
3D Hidden
350
31
  3
3dWireframe
350
30
  3
Basic
350
32
  3
Brighten
350
36
  3
ColorChange
350
3A
  3
Conceptual
350
34
  3
Dim
350
35
  3
Facepattern
350
39
  3
Flat
350
2B
  3
FlatWithEdges
350
2C
  3
Gouraud
350
2D
  3
GouraudWithEdges
350
2E
  3
Linepattern
350
38
  3
Realistic
350
33
  3
Thicken
350
37
  0
LAYOUT
  5
1E
102
{ACAD_REACTORS
330
1A
102
}
330
1A
100
AcDbPlotSettings
  1

  2
none_device
  4

  6

 40
0.0
 41
0.0
 42
0.0
 43
0.0
 44
0.0
 45
0.0
 46
0.0
 47
0.0
 48
0.0
 49
0.0
140
0.0
141
0.0
142
1.0
143
1.0
 70
   688
 72
     0
 73
     0
 74
     5
  7

 75
    16
 76
     0
 77
     2
 78
   300
147
1.0
148
0.0
149
0.0
100
AcDbLayout
  1
Layout1
 70
     1
 71
     1
 10
0.0
 20
0.0
 11
12.0
 21
9.0
 12
0.0
 22
0.0
 32
0.0
 14
1.000000000000000E+20
 24
1.000000000000000E+20
 34
1.000000000000000E+20
 15
-1.000000000000000E+20
 25
-1.000000000000000E+20
 35
-1.000000000000000E+20
146
0.0
 13
0.0
 23
0.0
 33
0.0
 16
1.0
 26
0.0
 36
0.0
 17
0.0
 27
1.0
 37
0.0
 76
     0
330
1B
  0
LAYOUT
  5
26
102
{ACAD_REACTORS
330
1A
102
}
330
1A
100
AcDbPlotSettings
  1

  2
none_device
  4

  6

 40
0.0
 41
0.0
 42
0.0
 43
0.0
 44
0.0
 45
0.0
 46
0.0
 47
0.0
 48
0.0
 49
0.0
140
0.0
141
0.0
142
1.0
143
1.0
 70
   688
 72
     0
 73
     0
 74
     5
  7

 75
    16
 76
     0
 77
     2
 78
   300
147
1.0
148
0.0
149
0.0
100
AcDbLayout
  1
Layout2
 70
     1
 71
     2
 10
0.0
 20
0.0
 11
0.0
 21
0.0
 12
0.0
 22
0.0
 32
0.0
 14
0.0
 24
0.0
 34
0.0
 15
0.0
 25
0.0
 35
0.0
146
0.0
 13
0.0
 23
0.0
 33
0.0
 16
1.0
 26
0.0
 36
0.0
 17
0.0
 27
1.0
 37
0.0
 76
     0
330
23
  0
LAYOUT
  5
22
102
{ACAD_REACTORS
330
1A
102
}
330
1A
100
AcDbPlotSettings
  1

  2
none_device
  4

  6

 40
0.0
 41
0.0
 42
0.0
 43
0.0
 44
0.0
 45
0.0
 46
0.0
 47
0.0
 48
0.0
 49
0.0
140
0.0
141
0.0
142
1.0
143
1.0
 70
  1712
 72
     0
 73
     0
 74
     0
  7

 75
     0
 76
     0
 77
     2
 78
   300
147
1.0
148
0.0
149
0.0
100
AcDbLayout
  1
Model
 70
     1
 71
     0
 10
0.0
 20
0.0
 11
12.0
 21
9.0
 12
0.0
 22
0.0
 32
0.0
 14
1.000000000000000E+20
 24
1.000000000000000E+20
 34
1.000000000000000E+20
 15
-1.000000000000000E+20
 25
-1.000000000000000E+20
 35
-1.000000000000000E+20
146
0.0
 13
0.0
 23
0.0
 33
0.0
 16
1.0
 26
0.0
 36
0.0
 17
0.0
 27
1.0
 37
0.0
 76
     0
330
1F
331
29
  0
MATERIAL
  5
3D
102
{ACAD_REACTORS
330
3B
102
}
330
3B
100
AcDbMaterial
  1
ByBlock
 72
     1
 94
      127
  0
MATERIAL
  5
3C
102
{ACAD_REACTORS
330
3B
102
}
330
3B
100
AcDbMaterial
  1
ByLayer
 72
     1
 94
      127
  0
MATERIAL
  5
3E
102
{ACAD_REACTORS
330
3B
102
}
330
3B
100
AcDbMaterial
  1
Global
 72
     1
 94
      127
  0
MLINESTYLE
  5
18
102
{ACAD_REACTORS
330
17
102
}
330
17
100
AcDbMlineStyle
  2
Standard
 70
     0
  3

 62
   256
 51
90.0
 52
90.0
 71
     2
 49
0.5
 62
   256
  6
BYLAYER
 49
-0.5
 62
   256
  6
BYLAYER
  0
ACDBPLACEHOLDER
  5
F
102
{ACAD_REACTORS
330
E
102
}
330
E
  0
VISUALSTYLE
  5
2F
102
{ACAD_REACTORS
330
2A
102
}
330
2A
100
AcDbVisualStyle
  2
2dWireframe
 70
     4
177
     2
291
     0
 71
     0
176
     1
 72
     2
176
     1
 73
     0
176
     1
 90
        0
176
     1
 40
-0.6
176
     1
 41
-30.0
176
     1
 62
     5
 63
     7
421
 16777215
176
     1
 74
     1
176
     1
 91
        4
176
     1
 64
     7
176
     1
 65
   257
176
     1
 75
     1
176
     1
175
     1
176
     1
 42
1.0
176
     1
 92
        0
176
     1
 66
   257
176
     1
 43
1.0
176
     1
 76
     1
176
     1
 77
     6
176
     1
 78
     2
176
     1
 67
     7
176
     1
 79
     5
176
     1
170
     0
176
     1
171
     0
176
     1
290
     0
176
     1
 93
        1
176
     1
 44
0.0
176
     1
173
     0
176
     1
  0
VISUALSTYLE
  5
31
102
{ACAD_REACTORS
330
2A
102
}
330
2A
100
AcDbVisualStyle
  2
3D Hidden
 70
     6
177
     2
291
     0
 71
     1
176
     1
 72
     2
176
     1
 73
     2
176
     1
 90
        0
176
     1
 40
-0.6
176
     1
 41
-30.0
176
     1
 62
     5
 63
     7
421
 16777215
176
     1
 74
     2
176
     1
 91
        2
176
     1
 64
     7
176
     1
 65
   257
176
     1
 75
     2
176
     1
175
     1
176
     1
 42
40.0
176
     1
 92
        0
176
     1
 66
   257
176
     1
 43
1.0
176
     1
 76
     1
176
     1
 77
     6
176
     1
 78
     2
176
     1
 67
     7
176
     1
 79
     3
176
     1
170
     0
176
     1
171
     0
176
     1
290
     0
176
     1
 93
        1
176
     1
 44
0.0
176
     1
173
     0
176
     1
  0
VISUALSTYLE
  5
30
102
{ACAD_REACTORS
330
2A
102
}
330
2A
100
AcDbVisualStyle
  2
3dWireframe
 70
     5
177
     2
291
     0
 71
     0
176
     1
 72
     2
176
     1
 73
     0
176
     1
 90
        0
176
     1
 40
-0.6
176
     1
 41
-30.0
176
     1
 62
     5
 63
     7
421
 16777215
176
     1
 74
     1
176
     1
 91
        4
176
     1
 64
     7
176
     1
 65
   257
176
     1
 75
     1
176
     1
175
     1
176
     1
 42
1.0
176
     1
 92
        0
176
     1
 66
   257
176
     1
 43
1.0
176
     1
 76
     1
176
     1
 77
     6
176
     1
 78
     2
176
     1
 67
     7
176
     1
 79
     5
176
     1
170
     0
176
     1
171
     0
176
     1
290
     0
176
     1
 93
        1
176
     1
 44
0.0
176
     1
173
     0
176
     1
  0
VISUALSTYLE
  5
32
102
{ACAD_REACTORS
330
2A
102
}
330
2A
100
AcDbVisualStyle
  2
Basic
 70
     7
177
     2
291
     1
 71
     1
176
     1
 72
     0
176
     1
 73
     1
176
     1
 90
        0
176
     1
 40
-0.6
176
     1
 41
-30.0
176
     1
 62
     5
 63
     7
421
 16777215
176
     1
 74
     0
176
     1
 91
        4
176
     1
 64
     7
176
     1
 65
   257
176
     1
 75
     1
176
     1
175
     1
176
     1
 42
1.0
176
     1
 92
        8
176
     1
 66
     7
176
     1
 43
1.0
176
     1
 76
     1
176
     1
 77
     6
176
     1
 78
     2
176
     1
 67
     7
176
     1
 79
     5
176
     1
170
     0
176
     1
171
     0
176
     1
290
     0
176
     1
 93
        1
176
     1
 44
0.0
176
     1
173
     0
176
     1
  0
VISUALSTYLE
  5
36
102
{ACAD_REACTORS
330
2A
102
}
330
2A
100
AcDbVisualStyle
  2
Brighten
 70
    12
177
     2
291
     1
 71
     2
176
     1
 72
     2
176
     1
 73
     0
176
     1
 90
        0
176
     1
 40
-0.6
176
     1
 41
-30.0
176
     1
 62
     5
 63
     7
421
 16777215
176
     1
 74
     1
176
     1
 91
        4
176
     1
 64
     7
176
     1
 65
   257
176
     1
 75
     1
176
     1
175
     1
176
     1
 42
1.0
176
     1
 92
        8
176
     1
 66
     7
176
     1
 43
1.0
176
     1
 76
     1
176
     1
 77
     6
176
     1
 78
     2
176
     1
 67
     7
176
     1
 79
     5
176
     1
170
     0
176
     1
171
     0
176
     1
290
     0
176
     1
 93
        1
176
     1
 44
50.0
176
     1
173
     0
176
     1
  0
VISUALSTYLE
  5
3A
102
{ACAD_REACTORS
330
2A
102
}
330
2A
100
AcDbVisualStyle
  2
ColorChange
 70
    16
177
     2
291
     1
 71
     2
176
     1
 72
     2
176
     1
 73
     3
176
     1
 90
        0
176
     1
 40
-0.6
176
     1
 41
-30.0
176
     1
 62
     5
 63
     8
421
  8421504
176
     1
 74
     1
176
     1
 91
        4
176
     1
 64
     7
176
     1
 65
   257
176
     1
 75
     1
176
     1
175
     1
176
     1
 42
1.0
176
     1
 92
        8
176
     1
 66
     8
424
  8421504
176
     1
 43
1.0
176
     1
 76
     1
176
     1
 77
     6
176
     1
 78
     2
176
     1
 67
     7
176
     1
 79
     5
176
     1
170
     0
176
     1
171
     0
176
     1
290
     0
176
     1
 93
        1
176
     1
 44
0.0
176
     1
173
     0
176
     1
  0
VISUALSTYLE
  5
34
102
{ACAD_REACTORS
330
2A
102
}
330
2A
100
AcDbVisualStyle
  2
Conceptual
 70
     9
177
     2
291
     0
 71
     3
176
     1
 72
     2
176
     1
 73
     0
176
     1
 90
        0
176
     1
 40
-0.6
176
     1
 41
-30.0
176
     1
 62
     5
 63
     7
421
 16777215
176
     1
 74
     2
176
     1
 91
        2
176
     1
 64
     7
176
     1
 65
   257
176
     1
 75
     1
176
     1
175
     1
176
     1
 42
40.0
176
     1
 92
        8
176
     1
 66
     7
176
     1
 43
1.0
176
     1
 76
     1
176
     1
 77
     6
176
     1
 78
     2
176
     1
 67
     7
176
     1
 79
     3
176
     1
170
     0
176
     1
171
     0
176
     1
290
     0
176
     1
 93
        1
176
     1
 44
0.0
176
     1
173
     0
176
     1
  0
VISUALSTYLE
  5
35
102
{ACAD_REACTORS
330
2A
102
}
330
2A
100
AcDbVisualStyle
  2
Dim
 70
    11
177
     2
291
     1
 71
     2
176
     1
 72
     2
176
     1
 73
     0
176
     1
 90
        0
176
     1
 40
-0.6
176
     1
 41
-30.0
176
     1
 62
     5
 63
     7
421
 16777215
176
     1
 74
     1
176
     1
 91
        4
176
     1
 64
     7
176
     1
 65
   257
176
     1
 75
     1
176
     1
175
     1
176
     1
 42
1.0
176
     1
 92
        8
176
     1
 66
     7
176
     1
 43
1.0
176
     1
 76
     1
176
     1
 77
     6
176
     1
 78
     2
176
     1
 67
     7
176
     1
 79
     5
176
     1
170
     0
176
     1
171
     0
176
     1
290
     0
176
     1
 93
        1
176
     1
 44
-50.0
176
     1
173
     0
176
     1
  0
VISUALSTYLE
  5
39
102
{ACAD_REACTORS
330
2A
102
}
330
2A
100
AcDbVisualStyle
  2
Facepattern
 70
    15
177
     2
291
     1
 71
     2
176
     1
 72
     2
176
     1
 73
     0
176
     1
 90
        0
176
     1
 40
-0.6
176
     1
 41
-30.0
176
     1
 62
     5
 63
     7
421
 16777215
176
     1
 74
     1
176
     1
 91
        4
176
     1
 64
     7
176
     1
 65
   257
176
     1
 75
     1
176
     1
175
     1
176
     1
 42
1.0
176
     1
 92
        8
176
     1
 66
     7
176
     1
 43
1.0
176
     1
 76
     1
176
     1
 77
     6
176
     1
 78
     2
176
     1
 67
     7
176
     1
 79
     5
176
     1
170
     0
176
     1
171
     0
176
     1
290
     0
176
     1
 93
        1
176
     1
 44
0.0
176
     1
173
     0
176
     1
  0
VISUALSTYLE
  5
2B
102
{ACAD_REACTORS
330
2A
102
}
330
2A
100
AcDbVisualStyle
  2
Flat
 70
     0
177
     2
291
     1
 71
     2
176
     1
 72
     1
176
     1
 73
     1
176
     1
 90
        2
176
     1
 40
-0.6
176
     1
 41
30.0
176
     1
 62
     5
 63
     7
421
 16777215
176
     1
 74
     0
176
     1
 91
        4
176
     1
 64
     7
176
     1
 65
   257
176
     1
 75
     1
176
     1
175
     1
176
     1
 42
1.0
176
     1
 92
        8
176
     1
 66
     7
176
     1
 43
1.0
176
     1
 76
     1
176
     1
 77
     6
176
     1
 78
     2
176
     1
 67
     7
176
     1
 79
     5
176
     1
170
     0
176
     1
171
     0
176
     1
290
     0
176
     1
 93
       13
176
     1
 44
0.0
176
     1
173
     0
176
     1
  0
VISUALSTYLE
  5
2C
102
{ACAD_REACTORS
330
2A
102
}
330
2A
100
AcDbVisualStyle
  2
FlatWithEdges
 70
     1
177
     2
291
     1
 71
     2
176
     1
 72
     1
176
     1
 73
     1
176
     1
 90
        2
176
     1
 40
-0.6
176
     1
 41
30.0
176
     1
 62
     5
 63
     7
421
 16777215
176
     1
 74
     1
176
     1
 91
        4
176
     1
 64
     7
176
     1
 65
   257
176
     1
 75
     1
176
     1
175
     1
176
     1
 42
1.0
176
     1
 92
        0
176
     1
 66
   257
176
     1
 43
1.0
176
     1
 76
     1
176
     1
 77
     6
176
     1
 78
     2
176
     1
 67
     7
176
     1
 79
     5
176
     1
170
     0
176
     1
171
     0
176
     1
290
     0
176
     1
 93
       13
176
     1
 44
0.0
176
     1
173
     0
176
     1
  0
VISUALSTYLE
  5
2D
102
{ACAD_REACTORS
330
2A
102
}
330
2A
100
AcDbVisualStyle
  2
Gouraud
 70
     2
177
     2
291
     1
 71
     2
176
     1
 72
     2
176
     1
 73
     1
176
     1
 90
        2
176
     1
 40
-0.6
176
     1
 41
30.0
176
     1
 62
     5
 63
     7
421
 16777215
176
     1
 74
     0
176
     1
 91
        4
176
     1
 64
     7
176
     1
 65
   257
176
     1
 75
     1
176
     1
175
     1
176
     1
 42
1.0
176
     1
 92
        0
176
     1
 66
     7
176
     1
 43
1.0
176
     1
 76
     1
176
     1
 77
     6
176
     1
 78
     2
176
     1
 67
     7
176
     1
 79
     5
176
     1
170
     0
176
     1
171
     0
176
     1
290
     0
176
     1
 93
       13
176
     1
 44
0.0
176
     1
173
     0
176
     1
  0
VISUALSTYLE
  5
2E
102
{ACAD_REACTORS
330
2A
102
}
330
2A
100
AcDbVisualStyle
  2
GouraudWithEdges
 70
     3
177
     2
291
     1
 71
     2
176
     1
 72
     2
176
     1
 73
     1
176
     1
 90
        2
176
     1
 40
-0.6
176
     1
 41
30.0
176
     1
 62
     5
 63
     7
421
 16777215
176
     1
 74
     1
176
     1
 91
        4
176
     1
 64
     7
176
     1
 65
   257
176
     1
 75
     1
176
     1
175
     1
176
     1
 42
1.0
176
     1
 92
        0
176
     1
 66
   257
176
     1
 43
1.0
176
     1
 76
     1
176
     1
 77
     6
176
     1
 78
     2
176
     1
 67
     7
176
     1
 79
     5
176
     1
170
     0
176
     1
171
     0
176
     1
290
     0
176
     1
 93
       13
176
     1
 44
0.0
176
     1
173
     0
176
     1
  0
VISUALSTYLE
  5
38
102
{ACAD_REACTORS
330
2A
102
}
330
2A
100
AcDbVisualStyle
  2
Linepattern
 70
    14
177
     2
291
     1
 71
     2
176
     1
 72
     2
176
     1
 73
     0
176
     1
 90
        0
176
     1
 40
-0.6
176
     1
 41
-30.0
176
     1
 62
     5
 63
     7
421
 16777215
176
     1
 74
     1
176
     1
 91
        4
176
     1
 64
     7
176
     1
 65
   257
176
     1
 75
     7
176
     1
175
     7
176
     1
 42
1.0
176
     1
 92
        8
176
     1
 66
     7
176
     1
 43
1.0
176
     1
 76
     1
176
     1
 77
     6
176
     1
 78
     2
176
     1
 67
     7
176
     1
 79
     5
176
     1
170
     0
176
     1
171
     0
176
     1
290
     0
176
     1
 93
        1
176
     1
 44
0.0
176
     1
173
     0
176
     1
  0
VISUALSTYLE
  5
33
102
{ACAD_REACTORS
330
2A
102
}
330
2A
100
AcDbVisualStyle
  2
Realistic
 70
     8
177
     2
291
     0
 71
     2
176
     1
 72
     2
176
     1
 73
     0
176
     1
 90
        0
176
     1
 40
-0.6
176
     1
 41
-30.0
176
     1
 62
     5
 63
     7
421
 16777215
176
     1
 74
     1
176
     1
 91
        0
176
     1
 64
     7
176
     1
 65
   257
176
     1
 75
     1
176
     1
175
     1
176
     1
 42
1.0
176
     1
 92
        8
176
     1
 66
     8
424
  7895160
176
     1
 43
1.0
176
     1
 76
     1
176
     1
 77
     6
176
     1
 78
     2
176
     1
 67
     7
176
     1
 79
     5
176
     1
170
     0
176
     1
171
     0
176
     1
290
     0
176
     1
 93
       13
176
     1
 44
0.0
176
     1
173
     0
176
     1
  0
VISUALSTYLE
  5
37
102
{ACAD_REACTORS
330
2A
102
}
330
2A
100
AcDbVisualStyle
  2
Thicken
 70
    13
177
     2
291
     1
 71
     2
176
     1
 72
     2
176
     1
 73
     0
176
     1
 90
        0
176
     1
 40
-0.6
176
     1
 41
-30.0
176
     1
 62
     5
 63
     7
421
 16777215
176
     1
 74
     1
176
     1
 91
        4
176
     1
 64
     7
176
     1
 65
   257
176
     1
 75
     1
176
     1
175
     1
176
     1
 42
1.0
176
     1
 92
       12
176
     1
 66
     7
176
     1
 43
1.0
176
     1
 76
     1
176
     1
 77
     6
176
     1
 78
     2
176
     1
 67
     7
176
     1
 79
     5
176
     1
170
     0
176
     1
171
     0
176
     1
290
     0
176
     1
 93
        1
176
     1
 44
0.0
176
     1
173
     0
176
     1
  0
ENDSEC
  0
EOF
